<svg width="1280" height="120" viewBox="0 0 1280 120" fill="none" xmlns="http://www.w3.org/2000/svg">
<rect width="256" height="120" fill="white"/>
<path d="M113.895 63.3973L109.901 67.4294L120.674 81.0001L124.669 76.968L113.895 63.3973Z" fill="#0A0A0A"/>
<path d="M101.492 47.177C99.1793 48.5598 97.2518 50.639 95.9243 53.1833C94.57 55.7862 93.8725 58.7572 93.9074 61.7747C93.8725 64.7923 94.57 67.7633 95.9243 70.3662C97.2518 72.9105 99.1793 74.9897 101.492 76.3725C103.944 77.8357 106.683 78.5778 109.456 78.5301C111.428 78.5452 113.388 78.1769 115.248 77.4415L111.697 72.9709C110.959 73.1358 110.209 73.2204 109.456 73.2236C107.638 73.2538 105.845 72.7515 104.25 71.7657C102.721 70.8095 101.461 69.3884 100.613 67.6644C99.7199 65.8665 99.2621 63.8353 99.2857 61.7747C99.2621 59.7142 99.7199 57.683 100.613 55.8851C101.466 54.1652 102.725 52.7456 104.25 51.7838C105.854 50.8264 107.642 50.3259 109.456 50.3259C111.271 50.3259 113.058 50.8264 114.662 51.7838C116.191 52.74 117.452 54.161 118.3 55.8851C119.193 57.683 119.651 59.7142 119.627 61.7747C119.644 63.3678 119.374 64.9482 118.834 66.4204L122.575 71.1243C122.73 70.8716 122.868 70.6383 123.006 70.3662C124.366 67.7592 125.064 64.78 125.023 61.7553C125.062 58.731 124.364 55.7525 123.006 53.1444C121.668 50.6145 119.742 48.5445 117.438 47.1576C114.969 45.7361 112.235 44.9966 109.463 45C106.691 45.0034 103.959 45.7496 101.492 47.177Z" fill="#0A0A0A"/>
<path d="M88.1497 45.0195H82.7713V77.6749H88.1497V45.0195Z" fill="#0A0A0A"/>
<path d="M133.917 74.3316C131.677 71.8047 130.573 68.1698 130.573 63.4465V45.0195H135.952V63.2132C135.952 69.6277 138.399 72.8155 143.312 72.8155C148.191 72.8155 150.633 69.6147 150.639 63.2132V45.0195H155.931V63.4465C155.931 68.1698 154.822 71.7982 152.604 74.3316C150.38 76.8585 147.277 78.1414 143.278 78.1414C139.261 78.1414 136.141 76.8715 133.917 74.3316" fill="#0A0A0A"/>
<path d="M168.825 45.0195H163.447V77.6749H168.825V45.0195Z" fill="#0A0A0A"/>
<path d="M182.03 50.1511H189.063C191.001 50.107 192.92 50.5799 194.665 51.5312C196.231 52.3837 197.53 53.7531 198.389 55.4576C199.283 57.2613 199.735 59.3008 199.699 61.3667C199.739 63.4331 199.287 65.4738 198.389 67.2757C197.52 68.9713 196.224 70.3378 194.665 71.2022C192.92 72.1514 191 72.6242 189.063 72.5822H182.03L182.03 50.1511ZM176.651 45.0195V77.6749H189.304C192.153 77.7301 194.974 77.0381 197.544 75.6534C199.861 74.3958 201.802 72.4029 203.129 69.9192C204.481 67.3312 205.168 64.3697 205.112 61.3666C205.168 58.3635 204.481 55.4021 203.129 52.814C201.798 50.3345 199.858 48.3429 197.544 47.0799C195.148 45.7193 192.407 45.0584 189.304 45.0584H176.651V45.0195Z" fill="#0A0A0A"/>
<path d="M58 45.0195V77.6751H78.5134V72.5435H63.3783V45.0195H58Z" fill="#0A0A0A"/>
<rect width="256" height="120" transform="translate(256)" fill="white"/>
<g clip-path="url(#clip0_309_12678)">
<path d="M351 10V110H416.633V10H351ZM399.64 28.5887V28.315H389.942V35.747H397.472V37.7749H389.942V47.5025H387.625C386.489 47.2166 385.321 47.0802 384.149 47.0969C382.802 47.0763 381.467 47.3533 380.239 47.908C379.09 48.3766 378.048 49.0735 377.177 49.9564C376.306 50.8393 375.623 51.8899 375.169 53.0446C374.694 54.2024 374.448 55.4412 374.443 56.6927C374.449 58.0315 374.695 59.3586 375.169 60.6105C375.591 61.7923 376.285 62.8575 377.197 63.7192C378.126 64.5849 379.206 65.2723 380.384 65.7471C381.737 66.204 383.156 66.4329 384.584 66.4243C385.311 66.4465 386.039 66.4017 386.758 66.2904C387.453 66.1939 388.134 66.0127 388.786 65.751C389.51 65.4793 390.09 65.2116 390.668 64.9399C391.168 64.7005 391.651 64.4296 392.116 64.1288V58.1831H385.308V56.2911H394.433V65.0738L394.29 65.2076C392.972 66.1159 391.564 66.8858 390.088 67.5051C388.334 68.181 386.463 68.5022 384.584 68.4502C382.805 68.424 381.044 68.1047 379.369 67.5051C377.9 66.9976 376.563 66.1668 375.458 65.0738C374.431 64.0105 373.598 62.7759 372.996 61.4257C372.404 60.0141 372.109 58.4966 372.126 56.9664C372.121 55.4813 372.417 54.0106 372.996 52.643C373.599 51.2936 374.432 50.0592 375.458 48.9949C375.724 48.6109 376.07 48.2886 376.471 48.0499V28.5927H369.663V26.5648H385.449V28.5927H378.787V46.5615C379.073 46.4237 379.221 46.4237 379.365 46.2898C380.971 45.6266 382.697 45.3048 384.434 45.3447C385.353 45.3189 386.273 45.3637 387.186 45.4787C387.33 45.4787 387.621 45.6126 387.764 45.6126V26.5607H399.64V28.315H399.646L399.64 28.5887Z" fill="black"/>
</g>
<rect width="256" height="120" transform="translate(512)" fill="white"/>
<g clip-path="url(#clip1_309_12678)">
<path d="M702.327 75.8472C702.198 74.8062 702.134 73.7581 702.136 72.709V60.5612C702.138 60.1504 702.104 59.7401 702.034 59.3352C701.818 58.2277 701.339 57.1882 700.639 56.3037C699.938 55.4191 699.036 54.7153 698.008 54.2511C697.107 53.8957 696.167 53.6538 695.207 53.5312C693.98 53.364 692.744 53.2813 691.506 53.2838C690.158 53.2825 688.813 53.4144 687.491 53.6774C686.228 53.919 685.015 54.3715 683.903 55.016C683.606 55.1889 683.32 55.3805 683.048 55.5896C682.208 56.328 681.532 57.2338 681.064 58.2488C680.595 59.2638 680.344 60.3657 680.326 61.4836V61.596H686.973C687.02 60.9294 687.152 60.2716 687.367 59.6389C687.544 59.1745 687.826 58.7573 688.191 58.4198C688.556 58.0822 688.994 57.8335 689.47 57.693C690.128 57.504 690.81 57.413 691.495 57.423C692.325 57.4 693.152 57.5454 693.924 57.8505C694.433 58.0697 694.864 58.4366 695.162 58.9037C695.46 59.3707 695.611 59.9165 695.595 60.4702C695.58 61.024 695.398 61.5603 695.074 62.0096C694.75 62.459 694.299 62.8008 693.778 62.9908L693.25 63.1483C692.403 63.354 691.542 63.4968 690.674 63.5757C689.692 63.6732 688.709 63.8006 687.727 63.9581C686.734 64.1147 685.75 64.325 684.78 64.588C684.465 64.678 683.925 64.8804 683.925 64.8804C682.798 65.3282 681.808 66.0614 681.051 67.0081C680.293 67.9547 679.795 69.0821 679.606 70.2795V71.3143C679.604 71.8077 679.642 72.3004 679.718 72.7878C679.954 74.0762 680.541 75.2745 681.414 76.2509C682.288 77.2273 683.413 77.9439 684.667 78.3218C685.632 78.5547 686.622 78.6717 687.614 78.6705C689.111 78.656 690.598 78.4365 692.035 78.0181C693.459 77.6019 694.752 76.8274 695.792 75.7685C695.819 76.1688 695.872 76.567 695.949 76.9608C696.03 77.342 696.135 77.7177 696.264 78.0856H703.013C702.64 77.3898 702.418 76.6233 702.36 75.836L702.327 75.8472ZM695.533 68.7273C695.524 69.2202 695.487 69.7122 695.42 70.2007C695.333 70.8544 695.119 71.4848 694.791 72.0567C694.401 72.706 693.851 73.2444 693.193 73.6201C692.259 74.1091 691.21 74.3383 690.156 74.2838C689.662 74.2775 689.17 74.2323 688.683 74.1488L688.244 74.0363C687.535 73.7784 686.941 73.2759 686.568 72.6191C686.37 72.2721 686.24 71.8903 686.186 71.4943C686.181 71.4156 686.181 71.3367 686.186 71.2581V70.6507C686.186 70.5607 686.276 70.1895 686.276 70.1782C686.41 69.6873 686.661 69.2363 687.008 68.864C687.354 68.4916 687.787 68.2093 688.267 68.0411H688.458C689.526 67.7677 690.607 67.55 691.697 67.3887C692.226 67.31 692.732 67.2425 693.171 67.1525C693.632 67.0657 694.086 66.9492 694.532 66.8039C694.921 66.684 695.281 66.4849 695.589 66.219L695.533 68.7273ZM643.061 75.8472C642.932 74.8062 642.868 73.7581 642.87 72.709V60.5612C642.872 60.1504 642.838 59.7401 642.769 59.3352C642.552 58.2277 642.074 57.1882 641.373 56.3037C640.673 55.4191 639.77 54.7153 638.742 54.2511C637.843 53.884 636.902 53.6308 635.941 53.4975C634.715 53.3303 633.478 53.2476 632.241 53.25C630.892 53.2486 629.547 53.3805 628.225 53.6437C626.962 53.8859 625.75 54.3384 624.637 54.9822C624.34 55.1555 624.055 55.3471 623.782 55.5559H623.703C622.864 56.2943 622.188 57.2001 621.719 58.2151C621.25 59.2301 620.999 60.3319 620.981 61.4498V61.5623H627.629C627.675 60.8956 627.807 60.2377 628.023 59.6051C628.2 59.1408 628.482 58.7235 628.846 58.386C629.211 58.0485 629.649 57.7998 630.126 57.6592C630.784 57.4702 631.466 57.3792 632.151 57.3893C632.977 57.3672 633.8 57.5126 634.569 57.8167C635.078 58.0359 635.509 58.4028 635.807 58.8699C636.105 59.337 636.255 59.8827 636.24 60.4365C636.224 60.9902 636.042 61.5265 635.718 61.9759C635.394 62.4253 634.943 62.7671 634.423 62.957L633.894 63.1145C633.047 63.3202 632.186 63.4631 631.318 63.5419C630.336 63.6394 629.354 63.7669 628.371 63.9244C627.378 64.0813 626.395 64.2916 625.424 64.5543C625.109 64.6442 624.569 64.8467 624.569 64.8467C623.442 65.2935 622.451 66.0265 621.694 66.9733C620.936 67.9201 620.439 69.048 620.25 70.2457V71.2806C620.245 71.7736 620.279 72.2663 620.351 72.754C620.597 74.0561 621.2 75.2638 622.095 76.2415C622.989 77.2191 624.138 77.9279 625.413 78.288C626.376 78.5399 627.365 78.6758 628.36 78.693C629.856 78.6785 631.344 78.459 632.78 78.0406C634.2 77.6227 635.49 76.8482 636.526 75.791C636.554 76.1913 636.607 76.5894 636.683 76.9833C636.765 77.3643 636.87 77.74 636.998 78.1081H643.747C643.374 77.4123 643.152 76.6458 643.095 75.8585L643.061 75.8472ZM636.234 68.7498C636.225 69.2427 636.187 69.7347 636.121 70.2232C636.035 70.8773 635.821 71.5079 635.491 72.0792C635.097 72.7355 634.539 73.2781 633.871 73.6539C632.933 74.1449 631.881 74.3741 630.823 74.3175C630.329 74.3113 629.837 74.2662 629.35 74.1825C629.194 74.1559 629.04 74.1183 628.889 74.0701C628.192 73.8178 627.606 73.3279 627.235 72.6866C627.036 72.34 626.906 71.9579 626.853 71.5618C626.848 71.4831 626.848 71.4042 626.853 71.3255V70.7182C626.853 70.6282 626.943 70.257 626.943 70.2457C627.077 69.7581 627.327 69.3101 627.672 68.94C628.016 68.5698 628.445 68.2885 628.922 68.1199H629.114C630.181 67.8465 631.263 67.6287 632.353 67.4675C632.882 67.3887 633.399 67.3213 633.826 67.2313C634.287 67.1444 634.742 67.0279 635.187 66.8826C635.573 66.7613 635.929 66.5622 636.234 66.2977V68.7498ZM741.02 57.8954C740.633 56.8623 740.004 55.9367 739.186 55.1959C738.37 54.5023 737.409 53.9989 736.374 53.7224C735.201 53.4084 733.989 53.2607 732.775 53.2838C731.212 53.2391 729.671 53.6663 728.355 54.5098C727.195 55.2422 726.193 56.1981 725.408 57.3218C724.856 55.9416 723.804 54.8207 722.461 54.1836C721.149 53.5807 719.72 53.2771 718.276 53.295C716.797 53.2682 715.336 53.6247 714.036 54.3298C712.894 54.9633 711.898 55.8293 711.111 56.8719V53.9024H704.655V78.0968H711.303V64.0368C711.256 63.0284 711.433 62.0221 711.82 61.0899C712.101 60.445 712.524 59.872 713.057 59.4139C713.489 59.0495 713.99 58.7777 714.531 58.6153L714.992 58.5028C715.209 58.4868 715.427 58.4868 715.644 58.5028C716.658 58.4949 717.64 58.8593 718.403 59.5269C719.166 60.1945 719.657 61.1188 719.784 62.1247V78.0743H726.431V64.5767C726.428 63.824 726.48 63.072 726.589 62.3272C726.653 61.8727 726.77 61.4272 726.937 60.9999C727.285 60.1838 727.886 59.501 728.651 59.052C729.416 58.6031 730.305 58.4118 731.187 58.5063C732.068 58.6008 732.897 58.9761 733.549 59.5769C734.202 60.1777 734.644 60.9723 734.811 61.8435V62.0797C734.871 62.8296 734.901 63.5794 734.901 64.3293V78.0518H741.549V61.9335C741.58 60.5652 741.355 59.2032 740.885 57.9179L741.02 57.8954ZM667.773 59.1665C667.548 58.0315 667.076 56.96 666.389 56.0283C665.684 55.1272 664.753 54.4287 663.69 54.0036C662.28 53.4698 660.776 53.225 659.269 53.2838C658.303 53.2868 657.342 53.4425 656.424 53.7449C654.832 54.2856 653.427 55.2688 652.374 56.5794L652.059 57.0181V53.8687H645.491V78.1081H652.138V65.4091C651.986 63.5515 652.414 61.6925 653.364 60.0888C653.462 59.966 653.567 59.8495 653.679 59.7401C654.219 59.1169 654.919 58.6539 655.704 58.4016C656.809 58.0604 658.004 58.1661 659.033 58.696C660.061 59.226 660.841 60.1379 661.204 61.2361C661.481 62.2777 661.609 63.3531 661.587 64.4305V78.1081H668.234V63.2045C668.231 61.8511 668.088 60.5015 667.807 59.1777L667.773 59.1665ZM617.888 65.7128C617.354 64.7456 616.613 63.9083 615.717 63.2607C614.781 62.6186 613.754 62.1218 612.669 61.7872C611.543 61.403 610.398 61.0764 609.238 60.8087L605.695 60.0663C604.642 59.8304 603.608 59.5145 602.602 59.1215L602.186 58.964L601.848 58.8178L601.219 58.4803C600.794 58.1921 600.455 57.7943 600.238 57.3291C600.021 56.8639 599.933 56.3487 599.985 55.8379C600.037 55.3272 600.226 54.84 600.532 54.428C600.839 54.0159 601.251 53.6944 601.725 53.4975C602.25 53.3152 602.793 53.1907 603.344 53.1263C603.882 53.0572 604.423 53.0196 604.964 53.0138C606.286 52.9898 607.597 53.2627 608.8 53.8124C609.384 54.1192 609.885 54.5646 610.258 55.1098C610.63 55.6549 610.863 56.2831 610.937 56.9394H617.686C617.548 55.4611 617.075 54.0338 616.302 52.7664C615.587 51.6376 614.636 50.6781 613.513 49.9544C612.364 49.2208 611.096 48.6918 609.767 48.3909C608.315 48.0461 606.828 47.8724 605.335 47.8735C603.935 47.8793 602.539 48.011 601.162 48.2672C599.767 48.513 598.421 48.988 597.181 49.6732C596.015 50.3105 595.007 51.2024 594.234 52.2827C593.444 53.4689 593.05 54.8745 593.109 56.2982C593.068 57.5821 593.342 58.8565 593.907 60.0101C594.399 60.9886 595.112 61.8395 595.988 62.4959C596.893 63.129 597.886 63.6255 598.935 63.9694C600.082 64.3603 601.25 64.687 602.433 64.9479C603.611 65.2104 604.765 65.4578 605.898 65.6903C606.929 65.8878 607.944 66.1622 608.935 66.5114C609.716 66.7783 610.438 67.1948 611.061 67.7374C611.646 68.3062 611.982 69.0839 611.994 69.9C612.007 70.716 611.695 71.5038 611.128 72.0904L611.061 72.1579C610.674 72.5013 610.228 72.7719 609.745 72.9565C609.043 73.227 608.31 73.4084 607.562 73.4964C606.872 73.5866 606.177 73.6354 605.482 73.6426C603.933 73.6778 602.404 73.2889 601.061 72.5178C600.408 72.0768 599.872 71.4842 599.498 70.7909C599.124 70.0975 598.923 69.3238 598.913 68.536H592.524C592.521 70.0963 592.879 71.6362 593.57 73.0352C594.22 74.2915 595.152 75.3807 596.292 76.2184C597.525 77.1044 598.914 77.7493 600.386 78.1193C602.073 78.5473 603.809 78.7553 605.549 78.738C607.097 78.766 608.643 78.6264 610.161 78.3218C611.654 78.0027 613.086 77.4443 614.401 76.6683C615.645 75.9419 616.706 74.9418 617.506 73.7439C618.332 72.421 618.747 70.8825 618.698 69.3234C618.742 68.0582 618.459 66.8031 617.877 65.6791L617.888 65.7128ZM677.412 78.0518H670.754V44.6566H677.401L677.412 78.0518ZM562.885 70.6957C562.736 71.9043 562.684 73.123 562.728 74.34V82.0111H570.399C570.72 81.9801 571.031 81.8804 571.31 81.7187C571.686 81.4993 571.997 81.1857 572.214 80.8089C572.431 80.4321 572.546 80.0051 572.547 79.5703V76.4996C572.499 75.065 572.736 73.6351 573.245 72.2929L578.79 63.2945C579.085 62.861 579.235 62.345 579.217 61.821C579.226 61.4216 579.112 61.029 578.891 60.6962C568.746 46.9287 563.965 40.3598 563.841 40.1911V40.0899C563.826 40.0645 563.804 40.0432 563.779 40.0275C563.754 40.0119 563.725 40.0024 563.695 39.9999C563.659 39.986 563.619 39.986 563.583 39.9999L563.425 40.1911L563.324 40.3486C561.941 42.7669 563.324 44.8478 564.359 46.6699C564.802 47.5419 565.29 48.3903 565.821 49.212C566.755 50.8654 567.947 52.6876 569.016 54.521C569.979 55.7928 570.496 57.3462 570.489 58.9415C570.45 60.7761 569.84 62.5529 568.746 64.0256C567.439 65.7458 565.902 67.2785 564.179 68.581C563.527 69.1181 563.076 69.8591 562.897 70.6844L562.885 70.6957ZM559.05 68.581C557.326 67.2785 555.79 65.7458 554.483 64.0256C553.384 62.5543 552.771 60.7773 552.728 58.9415C552.721 57.3462 553.239 55.7928 554.202 54.521C555.327 52.6876 556.452 50.8654 557.464 49.257C557.936 48.4809 558.409 47.6485 558.937 46.7374C559.927 44.9378 561.356 42.8344 559.972 40.4161L559.747 40.2024V39.9999C559.711 39.986 559.671 39.986 559.635 39.9999C559.606 40.0012 559.578 40.0089 559.553 40.0226C559.527 40.0362 559.505 40.0553 559.489 40.0786L559.41 40.1799C559.275 40.3598 554.506 46.9287 544.36 60.5725C544.139 60.9053 544.025 61.2978 544.034 61.6973H544C543.984 62.2211 544.134 62.7366 544.427 63.1707L549.849 72.1691C550.357 73.5116 550.594 74.9413 550.546 76.3759V79.4803C550.55 79.9132 550.665 80.3379 550.882 80.7125C551.099 81.0872 551.41 81.3991 551.784 81.6175C552.063 81.7791 552.374 81.8789 552.695 81.9099H560.366V74.2613C560.411 73.0442 560.358 71.8255 560.208 70.6169C560.03 69.7916 559.578 69.0506 558.926 68.5135L559.05 68.581ZM561.648 51.8103C560.276 51.8103 558.934 52.2173 557.792 52.9799C556.651 53.7425 555.762 54.8263 555.236 56.0945C554.711 57.3626 554.574 58.758 554.841 60.1042C555.109 61.4504 555.77 62.687 556.741 63.6576C557.711 64.6282 558.948 65.2892 560.294 65.5569C561.64 65.8247 563.036 65.6873 564.304 65.162C565.572 64.6367 566.656 63.7472 567.419 62.606C568.181 61.4647 568.588 60.1229 568.588 58.7503C568.588 56.9097 567.857 55.1445 566.555 53.843C565.254 52.5415 563.489 51.8103 561.648 51.8103Z" fill="black"/>
</g>
<rect width="256" height="120" transform="translate(768)" fill="white"/>
<g clip-path="url(#clip2_309_12678)">
<path d="M845.048 80.7502C845.789 79.6673 846.172 78.3797 846.144 77.068C846.185 75.9499 845.881 74.8462 845.272 73.9076C844.597 72.975 843.74 72.1889 842.752 71.597C841.308 70.7229 839.814 69.9316 838.28 69.2266C837.424 68.8648 836.615 68.3991 835.872 67.8402C835.615 67.6378 835.407 67.3797 835.264 67.0854C835.121 66.7911 835.046 66.4681 835.045 66.1408C835.043 65.8055 835.116 65.4739 835.259 65.1707C835.402 64.8675 835.612 64.6004 835.872 64.3891C836.562 63.8874 837.408 63.6494 838.258 63.7183C839.716 63.7114 841.158 64.0217 842.484 64.6277C843.371 65.0318 844.23 65.495 845.056 66.0141V61.5791C844.817 61.4523 844.437 61.2585 843.826 60.9902C842.922 60.618 841.986 60.3286 841.03 60.1256C839.807 59.8573 838.556 59.7273 837.304 59.738C835.702 59.7065 834.114 60.0297 832.652 60.6846C831.52 61.1901 830.563 62.0202 829.902 63.0698C829.306 64.0593 828.993 65.1941 829 66.3495C828.969 67.5048 829.275 68.6443 829.88 69.6292C830.481 70.5817 831.279 71.3949 832.22 72.0144C833.327 72.7119 834.494 73.3081 835.708 73.7958C836.732 74.1789 837.707 74.6792 838.615 75.2866C838.979 75.5152 839.28 75.8316 839.49 76.2067C839.699 76.5818 839.811 77.0035 839.815 77.4333C839.781 78.0247 839.529 78.5825 839.107 78.9986C838.615 79.5501 837.669 79.8259 836.208 79.8259C834.801 79.8343 833.406 79.558 832.108 79.0135C831.116 78.5854 830.15 78.0976 829.216 77.5525V82.226C830.319 82.6975 831.458 83.0789 832.623 83.3665C833.568 83.6104 834.529 83.7872 835.5 83.8957C836.245 83.9628 836.834 83.9926 837.333 83.9926C838.926 84.0214 840.507 83.7299 841.985 83.1354C843.212 82.6445 844.274 81.8147 845.048 80.7427V80.7502ZM862.348 77.1351L862.08 77.3289C861.382 77.8684 860.633 78.3377 859.844 78.7302C859.299 78.9822 858.707 79.1192 858.107 79.1327C857.585 79.144 857.067 79.038 856.591 78.8226C856.115 78.6071 855.693 78.2878 855.357 77.8879C854.677 77.0919 854.242 76.1159 854.104 75.0779C853.874 73.6483 853.986 72.1844 854.432 70.8069C854.834 69.5315 855.614 68.4084 856.668 67.5868C857.739 66.7761 859.053 66.3506 860.395 66.3793H862.356L862.348 77.1351ZM862.222 83.0981H867.991V63.0698C866.634 62.8611 865.606 62.7195 864.853 62.63C863.788 62.5206 862.718 62.4708 861.648 62.481C859.111 62.4033 856.582 62.8054 854.194 63.6661C852.541 64.2555 851.082 65.2867 849.975 66.6476C849.103 67.7957 848.515 69.1342 848.261 70.5534C848.031 71.9015 848.013 73.2772 848.208 74.6306C848.432 76.1863 848.959 77.6829 849.759 79.0358C850.496 80.3149 851.516 81.4087 852.74 82.2335C853.87 83.0124 855.207 83.4379 856.579 83.4559C857.454 83.5003 858.325 83.3153 859.106 82.9193C859.834 82.4744 860.503 81.9384 861.096 81.3241L862.229 80.2135L862.222 83.0981ZM885.328 83.0981H891.105V70.777C891.105 69.6739 891.03 68.8763 890.971 68.4813C890.734 66.9469 890.088 65.5048 889.1 64.3071C888.123 63.0996 886.677 62.5108 884.665 62.5108C883.553 62.4637 882.446 62.6943 881.445 63.1816C880.396 63.7918 879.398 64.4873 878.463 65.2612L877.397 66.0513V62.8462H871.666V83.046H877.36V70.464L877.532 70.2776C878.328 69.3653 879.198 68.5201 880.133 67.7508C880.825 67.2032 881.681 66.9039 882.563 66.9011C883.435 66.9011 884.941 67.2365 885.276 69.4801C885.324 69.7608 885.349 70.045 885.351 70.3298L885.328 83.0981ZM902.047 83.4559C903.833 83.4738 905.588 82.9937 907.116 82.0695L906.49 77.1053C905.538 77.8513 904.38 78.286 903.173 78.3501C902.383 78.3501 900.996 78.0519 900.616 76.032C900.538 75.539 900.503 75.0402 900.512 74.5412V66.8563H904.775V62.2201H900.556V55.0645H894.81V75.3835C894.804 76.1333 894.869 76.882 895.003 77.6196C895.217 79.03 895.875 80.3355 896.882 81.3465C897.592 82.0877 898.458 82.6629 899.416 83.0311C900.251 83.3273 901.131 83.4811 902.017 83.4857L902.047 83.4559ZM922.597 77.1277L922.269 77.3811C921.593 77.9103 920.869 78.3769 920.108 78.7749C919.562 79.0261 918.971 79.1631 918.371 79.1775C917.849 79.1881 917.331 79.0819 916.855 78.8665C916.379 78.6512 915.957 78.3321 915.62 77.9327C914.938 77.1375 914.5 76.1614 914.361 75.1226C914.129 73.6931 914.242 72.229 914.689 70.8516C915.089 69.5758 915.869 68.4525 916.925 67.6315C917.996 66.8208 919.309 66.3953 920.652 66.424H922.605L922.597 77.1277ZM922.5 83.0907H928.255V63.0698C926.891 62.8611 925.869 62.712 925.117 62.63C924.054 62.5207 922.987 62.471 921.919 62.481C919.369 62.399 916.828 62.8011 914.428 63.6661C912.775 64.2555 911.316 65.2867 910.209 66.6476C909.336 67.7951 908.748 69.1339 908.495 70.5534C908.265 71.9015 908.248 73.2771 908.442 74.6306C908.666 76.1887 909.193 77.6879 909.993 79.0433C910.73 80.3224 911.75 81.4161 912.974 82.241C914.117 83.0056 915.461 83.413 916.835 83.4112C917.71 83.456 918.581 83.2709 919.362 82.8745C920.094 82.431 920.765 81.8949 921.36 81.2794L922.478 80.1464L922.5 83.0907ZM963.176 71.1646C963.189 70.2163 963.147 69.2681 963.049 68.3247C962.806 66.8268 962.147 65.4271 961.148 64.2848C960.149 63.0847 958.487 62.481 956.221 62.481C955.37 62.4663 954.524 62.6183 953.732 62.9282C953.041 63.2022 952.394 63.5737 951.809 64.0314C951.289 64.4423 950.81 64.9015 950.377 65.4029L949.811 66.0737L949.341 65.3283C948.827 64.4354 948.079 63.699 947.179 63.1975C946.278 62.6961 945.258 62.4484 944.228 62.481C943.121 62.4703 942.03 62.7532 941.068 63.3009C940.195 63.7797 939.408 64.4021 938.742 65.142L937.609 66.4687V62.8537H931.944V83.0758H937.617V69.8602L937.773 69.6813C938.449 68.8872 939.197 68.1585 940.009 67.5048C940.626 66.9969 941.395 66.7107 942.193 66.6924C942.515 66.6722 942.837 66.7239 943.136 66.8438C943.435 66.9638 943.704 67.1488 943.923 67.3856C944.301 67.8784 944.536 68.4667 944.601 69.085C944.679 69.9424 944.711 70.8033 944.698 71.664V83.046H950.377V69.3534L950.564 69.167C952.204 67.5048 953.598 66.6924 954.827 66.6924C955.618 66.6924 957.004 67.0501 957.354 69.4577C957.423 69.9841 957.458 70.5145 957.459 71.0454V83.0758H963.168L963.176 71.1646Z" fill="black"/>
<path d="M900.333 35.4908V34H894.37V35.4237C871.307 35.768 848.965 43.5158 830.64 57.5242C832.395 56.6489 834.211 55.9016 836.074 55.288C850.504 50.7561 864.562 51.7922 873.395 57.4049C879.567 54.3041 887.348 52.4705 896.345 52.4407C905.342 52.4109 913.116 54.2967 919.288 57.4049C928.121 51.7922 942.186 50.7561 956.609 55.288C958.472 55.9014 960.288 56.6487 962.043 57.5242C944.266 43.9385 922.694 36.2363 900.333 35.4908Z" fill="black"/>
</g>
<rect width="256" height="120" transform="translate(1024)" fill="white"/>
<g clip-path="url(#clip3_309_12678)">
<path d="M1184.14 40H1226.63V80H1184.14V40ZM1217.98 52.9138C1217.98 51.2996 1217.96 49.7127 1217.98 48.1532C1218 48.0051 1217.97 47.8545 1217.88 47.7323C1217.8 47.6102 1217.67 47.5259 1217.52 47.4966C1216.31 47.0862 1215.11 46.5937 1213.88 46.238C1209.17 44.87 1204.5 44.8153 1199.9 46.6211C1193.74 49.0287 1189.94 54.9932 1190.65 61.4774C1191.23 66.7579 1193.93 70.8071 1198.78 72.9959C1205.21 75.9234 1211.66 75.3215 1217.96 72.2845C1218.04 72.2188 1218.11 72.1363 1218.16 72.0421C1218.22 71.948 1218.25 71.8443 1218.26 71.7373C1218.28 70.1778 1218.28 68.6183 1218.26 67.0588C1218.26 66.9494 1218.23 66.8399 1218.23 66.7852C1216.75 67.4966 1215.3 68.2627 1213.82 68.8919C1210.19 70.4241 1206.44 70.6977 1202.63 69.4391C1194.97 66.8947 1194.02 57.4829 1198.89 52.8317C1201.18 50.643 1204.06 49.7948 1207.18 49.7674C1209.83 49.7401 1212.32 50.4514 1214.76 51.4364C1215.82 51.8468 1216.86 52.394 1217.98 52.9138Z" fill="black"/>
<path d="M1177.57 80H1135.11V40H1177.57V80ZM1146.25 74.3912H1146.96C1150.43 74.3912 1153.91 74.446 1157.38 74.3639C1158.74 74.3359 1160.09 74.1429 1161.4 73.7893C1163.4 73.2695 1165.18 72.2572 1166.33 70.4788C1168.57 67.0315 1167.78 61.5595 1162.61 59.5075C1162.2 59.3434 1161.76 59.2066 1161.29 59.0424C1161.37 58.9922 1161.44 58.9374 1161.51 58.8782C1166.16 56.2791 1165.59 50.342 1162.39 47.7702C1160.53 46.2654 1158.34 45.6361 1155.99 45.5814C1152.92 45.5267 1149.86 45.554 1146.82 45.554C1146.63 45.554 1146.44 45.5814 1146.25 45.5814V74.3912Z" fill="black"/>
<path d="M1086 40H1128.49V80H1086V40ZM1112.21 59.0698C1112.28 59.0025 1112.37 58.9471 1112.46 58.9056C1117.08 56.3338 1116.51 50.4241 1113.39 47.8523C1111.5 46.2927 1109.28 45.6635 1106.9 45.6088C1103.84 45.554 1100.77 45.5814 1097.74 45.5814C1097.57 45.5814 1097.38 45.6088 1097.19 45.6088V74.3912H1108.63C1110.34 74.3951 1112.03 74.0604 1113.61 73.4063C1116.83 72.0657 1118.5 69.5759 1118.45 66.156C1118.42 63.2285 1116.48 60.6566 1113.39 59.4802C1113.03 59.3434 1112.65 59.2339 1112.21 59.0698Z" fill="black"/>
<path d="M1151.39 69.9044V62.1068C1151.54 62.0841 1151.7 62.0749 1151.86 62.0795H1157.16C1158.2 62.0486 1159.22 62.2742 1160.15 62.7361C1161.38 63.3654 1162.11 64.3503 1162.17 65.773C1162.23 66.4551 1162.08 67.1388 1161.75 67.7378C1161.42 68.3368 1160.92 68.8242 1160.31 69.1383C1159.37 69.6554 1158.32 69.9282 1157.24 69.9317C1155.41 69.9591 1153.55 69.9317 1151.72 69.9317C1151.61 69.9499 1151.5 69.9405 1151.39 69.9044Z" fill="black"/>
<path d="M1151.39 57.4554V50.0957C1152.43 50.0957 1153.47 50.0683 1154.48 50.0957C1155.28 50.1006 1156.08 50.1739 1156.86 50.3145C1158.42 50.6429 1159.43 51.7372 1159.6 53.1052C1159.71 53.8447 1159.59 54.6021 1159.25 55.2666C1158.9 55.9312 1158.35 56.4681 1157.68 56.7988C1157.08 57.1382 1156.42 57.3523 1155.74 57.4281C1154.29 57.5102 1152.87 57.4554 1151.39 57.4554Z" fill="black"/>
<path d="M1102.31 69.9042V62.1614C1102.36 62.134 1102.36 62.1067 1102.39 62.1067C1104.8 62.134 1107.23 62.134 1109.64 62.2708C1110.24 62.2982 1110.9 62.6265 1111.44 62.9548C1111.97 63.2755 1112.4 63.7264 1112.7 64.2638C1113 64.8011 1113.15 65.4065 1113.15 66.021C1113.14 66.6354 1112.98 67.238 1112.67 67.7699C1112.36 68.3018 1111.92 68.7449 1111.39 69.0561C1110.44 69.6269 1109.35 69.9294 1108.24 69.9316C1106.36 69.9589 1104.47 69.9316 1102.61 69.9316C1102.51 69.9478 1102.4 69.9384 1102.31 69.9042Z" fill="black"/>
<path d="M1102.31 57.4555V50.1504C1102.36 50.1231 1102.39 50.0957 1102.42 50.0957C1104.03 50.1231 1105.67 50.041 1107.29 50.2051C1109.53 50.4514 1110.73 52.0382 1110.49 54.1176C1110.44 54.6599 1110.25 55.1809 1109.95 55.631C1109.64 56.0811 1109.22 56.4454 1108.74 56.6894C1108.04 57.0773 1107.28 57.3281 1106.49 57.4281C1105.12 57.5649 1103.76 57.4555 1102.31 57.4555Z" fill="black"/>
</g>
<defs>
<clipPath id="clip0_309_12678">
<rect width="65.6334" height="100" fill="white" transform="translate(351 10)"/>
</clipPath>
<clipPath id="clip1_309_12678">
<rect width="197.582" height="42" fill="white" transform="translate(544 40)"/>
</clipPath>
<clipPath id="clip2_309_12678">
<rect width="134.168" height="50" fill="white" transform="translate(829 34)"/>
</clipPath>
<clipPath id="clip3_309_12678">
<rect width="140.629" height="40" fill="white" transform="translate(1086 40)"/>
</clipPath>
</defs>
</svg>
