<svg width="1280" height="120" viewBox="0 0 1280 120" fill="none" xmlns="http://www.w3.org/2000/svg">
<g clip-path="url(#clip0_309_12676)">
<g filter="url(#filter0_d_309_12676)">
<path d="M108.728 79.4275L115.331 40.6741H125.898L119.288 79.4275H108.728ZM157.592 41.6308C154.558 40.5317 151.354 39.9796 148.127 40.0001C137.69 40.0001 130.341 45.2546 130.276 52.785C130.218 58.3512 135.523 61.4822 139.531 63.3159C143.539 65.1495 145.025 66.4251 145.003 68.1211C145.003 70.7158 141.72 71.9044 138.683 71.9044C135.251 72.0092 131.842 71.3145 128.725 69.875L127.362 69.259L125.913 77.9562C128.377 79.0361 132.943 79.9783 137.676 80.0218C148.779 80.0218 155.983 74.8252 156.07 66.7803C156.107 62.3737 153.294 59.018 147.199 56.2494C143.51 54.4592 141.249 53.2633 141.271 51.4442C141.271 49.8352 143.184 48.1102 147.322 48.1102C150.03 48.0384 152.723 48.5321 155.23 49.5598L156.179 50.0091L157.629 41.6091L157.592 41.6308ZM184.677 40.7248H176.516C173.987 40.7248 172.095 41.4496 170.986 43.9356L155.302 79.4492H166.413C166.413 79.4492 168.225 74.673 168.638 73.6511H182.162C182.481 75.0064 183.445 79.4492 183.445 79.4492H193.229L184.677 40.7248ZM171.631 65.7004C172.53 63.4536 175.835 54.8578 175.835 54.8578C175.835 54.8578 176.705 52.611 177.234 51.1615L178.009 54.4954L180.452 65.6859L171.631 65.7004ZM99.8718 40.7248L89.5293 67.1282L88.4277 61.7431C86.4998 55.5536 80.5059 48.8422 73.8018 45.4866L83.2238 79.3768H94.3998L111.062 40.7248H99.8718Z" fill="black"/>
<path d="M79.9406 40.6813H62.9085L62.7708 41.4495C76.0196 44.6892 84.7893 52.4443 88.4276 61.7431L84.7241 43.95C84.0863 41.493 82.2309 40.761 79.9333 40.6813" fill="black"/>
</g>
</g>
<rect width="256" height="120" transform="translate(256)" fill="white"/>
<g clip-path="url(#clip1_309_12676)">
<path d="M364.527 48.4187H349.519V51.9536H355.008V67.6125H359.039V51.9536H364.527V48.4187Z" fill="black"/>
<path d="M367.628 63.2403H367.566L364.558 53.7209H360.682L365.333 66.7752C365.432 67.0541 365.485 67.3475 365.488 67.6434C365.485 68.0407 365.366 68.4284 365.147 68.7597C365.027 68.9304 364.869 69.072 364.687 69.174C364.505 69.2759 364.302 69.3357 364.093 69.3489C363.731 69.3695 363.368 69.3591 363.008 69.3178L361.953 69.2248V72.3566L363.07 72.4496C363.442 72.4806 363.814 72.4806 364.186 72.4806C365.426 72.4806 366.419 72.2326 367.101 71.7675C367.783 71.3023 368.341 70.4651 368.744 69.3489L374.264 53.7209H370.512L367.628 63.2403Z" fill="black"/>
<path d="M393.985 54.4651C393.544 54.0574 393.012 53.7599 392.434 53.5969C391.801 53.4044 391.142 53.3103 390.481 53.3178C389.629 53.2974 388.794 53.5471 388.093 54.031C387.452 54.4543 386.904 55.0028 386.481 55.6434C386.19 54.8714 385.628 54.232 384.899 53.8449C384.184 53.5028 383.398 53.3328 382.605 53.3488C381.79 53.3298 380.986 53.5336 380.279 53.938C379.585 54.3629 378.993 54.9343 378.543 55.6124H378.481V53.7209H375.039V67.6124H378.667V59.5504C378.644 58.9891 378.739 58.4293 378.946 57.907C379.087 57.5332 379.322 57.2021 379.628 56.9457C379.868 56.7452 380.141 56.5878 380.434 56.4806C380.653 56.4022 380.884 56.3603 381.116 56.3566C381.582 56.3219 382.047 56.43 382.45 56.6666C382.748 56.8585 382.976 57.1411 383.101 57.4728C383.224 57.8334 383.297 58.2089 383.318 58.5891C383.349 58.9922 383.349 59.3953 383.349 59.7984V67.6124H386.977V59.8604C386.976 59.4349 387.007 59.01 387.07 58.5891C387.118 58.1959 387.245 57.8163 387.442 57.4728C387.622 57.1485 387.877 56.8721 388.186 56.6666C388.559 56.4411 388.991 56.3331 389.426 56.3566C389.848 56.3344 390.267 56.4311 390.636 56.6356C390.923 56.8076 391.159 57.054 391.318 57.3488C391.483 57.688 391.578 58.0572 391.597 58.4341C391.628 58.8372 391.659 59.2713 391.659 59.7674V67.6434H395.287V58.3411C395.308 57.5596 395.181 56.7813 394.915 56.0465C394.76 55.4423 394.437 54.8941 393.985 54.4651Z" fill="black"/>
<path d="M408.31 55.8605C407.781 55.0872 407.067 54.4583 406.233 54.031C405.325 53.5555 404.311 53.3206 403.287 53.3488C402.338 53.3389 401.398 53.5291 400.527 53.907C399.713 54.2676 398.984 54.7959 398.388 55.4574C397.781 56.1381 397.307 56.927 396.992 57.7829C396.341 59.6805 396.33 61.7391 396.961 63.6434C397.255 64.4959 397.707 65.285 398.295 65.969C398.885 66.6213 399.617 67.1303 400.434 67.4574C401.331 67.8161 402.29 67.9952 403.256 67.9845C404.618 68.0188 405.958 67.6405 407.101 66.8992C408.155 66.186 408.961 64.9767 409.457 63.3333H406.264C406.093 63.8355 405.753 64.2629 405.302 64.5426C404.75 64.9347 404.088 65.1411 403.411 65.1318C402.388 65.1318 401.612 64.8527 401.054 64.2946C400.496 63.7364 400.217 62.8372 400.155 61.5969H409.705C409.766 60.5568 409.682 59.5134 409.457 58.4961C409.249 57.5517 408.859 56.6567 408.31 55.8605ZM400.186 59.1783C400.213 58.8748 400.265 58.574 400.341 58.2791C400.451 57.909 400.633 57.5646 400.878 57.2664C401.123 56.9681 401.426 56.722 401.767 56.5426C402.218 56.3142 402.72 56.2073 403.225 56.2326C404.124 56.2326 404.775 56.4806 405.209 56.9767C405.706 57.6136 406.018 58.3755 406.109 59.1783H400.186Z" fill="black"/>
<path d="M421.829 57.473V57.4109C422.293 57.3032 422.734 57.1143 423.132 56.8528C423.913 56.2859 424.49 55.4808 424.775 54.5582C424.925 54.0872 424.999 53.5951 424.992 53.1009C425.026 52.326 424.855 51.5559 424.496 50.8683C424.182 50.2871 423.736 49.7879 423.194 49.4109C422.632 49.0296 422 48.7659 421.333 48.6357C420.609 48.4853 419.871 48.4125 419.132 48.4187H411.411V67.6125H419.132C419.988 67.6275 420.842 67.5337 421.674 67.3334C422.302 67.1744 422.907 66.9347 423.473 66.6202C423.919 66.3453 424.316 65.9997 424.651 65.597C424.927 65.2286 425.147 64.821 425.302 64.3877C425.445 64.0064 425.549 63.6116 425.612 63.2094C425.661 62.8706 425.682 62.5283 425.674 62.1861C425.711 61.0399 425.337 59.9182 424.62 59.0233C424.287 58.5862 423.867 58.2228 423.387 57.9559C422.907 57.6891 422.377 57.5247 421.829 57.473ZM413.147 49.9691H419.132C421.892 49.9691 423.256 51.1784 423.256 53.566C423.251 54.0013 423.167 54.4322 423.008 54.8373C422.832 55.234 422.567 55.5843 422.233 55.8606C421.858 56.1765 421.426 56.4185 420.961 56.5737C420.367 56.7449 419.75 56.8284 419.132 56.8218H413.147V49.9691ZM423.566 64.0156C423.327 64.5042 422.963 64.9213 422.512 65.2249C422.05 65.5492 421.519 65.7615 420.961 65.8451C420.359 65.9699 419.746 66.0322 419.132 66.0311H413.147V58.3722H419.132C420.682 58.3722 421.892 58.6823 422.698 59.3024C423.504 59.9226 423.938 60.8528 423.938 62.0931C423.962 62.7539 423.835 63.4115 423.566 64.0156Z" fill="black"/>
<path d="M437.209 65.1628V57.783C437.237 57.0054 437.089 56.2315 436.775 55.5194C436.526 54.9767 436.141 54.507 435.659 54.1551C435.187 53.8442 434.661 53.6234 434.109 53.5039C433.538 53.3792 432.956 53.3168 432.372 53.3179C431.66 53.3108 430.95 53.4048 430.264 53.5969C429.667 53.7682 429.109 54.0524 428.62 54.4342C428.142 54.8285 427.76 55.327 427.504 55.8915C427.212 56.5586 427.044 57.273 427.008 58H428.62C428.651 56.8838 428.992 56.0466 429.643 55.5504C430.37 55.0187 431.255 54.7457 432.155 54.7752C432.603 54.7674 433.05 54.809 433.488 54.8993C433.883 54.9785 434.26 55.1254 434.605 55.3334C434.923 55.5545 435.179 55.8534 435.349 56.2016C435.552 56.6489 435.647 57.1373 435.628 57.628C435.636 57.935 435.583 58.2405 435.473 58.5272C435.394 58.7475 435.254 58.941 435.07 59.0853C434.873 59.2207 434.652 59.3155 434.419 59.3644C434.122 59.4273 433.822 59.4687 433.519 59.4884C432.651 59.5814 431.783 59.7055 430.946 59.8295C430.156 59.9289 429.384 60.1376 428.651 60.4497C428.012 60.71 427.454 61.1386 427.039 61.69C426.596 62.3593 426.379 63.1522 426.419 63.9535C426.409 64.58 426.525 65.202 426.76 65.783C426.979 66.2742 427.308 66.709 427.721 67.0543C428.123 67.3998 428.601 67.6444 429.116 67.7675C429.682 67.9215 430.267 67.9946 430.853 67.9845C431.417 67.9947 431.979 67.9321 432.527 67.7985C432.965 67.6856 433.383 67.5079 433.767 67.2714C434.147 67.0424 434.482 66.7485 434.76 66.4031C435.089 66.0227 435.389 65.6185 435.659 65.1938H435.721C435.724 65.5255 435.745 65.8567 435.783 66.1861C435.804 66.4649 435.901 66.7328 436.062 66.9613C436.205 67.1809 436.41 67.3534 436.651 67.4574C436.964 67.5932 437.303 67.6568 437.643 67.6435C437.83 67.6504 438.017 67.6401 438.202 67.6124C438.369 67.5937 438.535 67.5626 438.698 67.5194V66.0931C438.53 66.1593 438.351 66.191 438.171 66.1861C437.519 66.1861 437.209 65.845 437.209 65.1628ZM435.597 62.2171C435.609 62.8469 435.482 63.4715 435.225 64.0466C434.985 64.5608 434.648 65.0241 434.233 65.4109C433.801 65.7826 433.308 66.0764 432.775 66.2791C432.207 66.4771 431.61 66.5818 431.008 66.5892C430.628 66.5879 430.251 66.5251 429.891 66.4031C429.536 66.2857 429.209 66.0956 428.93 65.845C428.654 65.6054 428.432 65.3094 428.279 64.9768C428.114 64.6171 428.029 64.2255 428.031 63.8295C428.011 63.5391 428.053 63.2477 428.154 62.9749C428.256 62.7021 428.415 62.4543 428.62 62.2481C429.032 61.856 429.532 61.5689 430.078 61.4109C430.725 61.2091 431.389 61.0638 432.062 60.9768C432.775 60.8838 433.488 60.7597 434.171 60.6357C434.433 60.5927 434.692 60.5305 434.946 60.4497C435.069 60.4236 435.186 60.3713 435.287 60.2965C435.389 60.2216 435.473 60.1258 435.535 60.0155H435.597V62.2171Z" fill="black"/>
<path d="M449.612 54.7753C449.218 54.299 448.704 53.9354 448.124 53.721C447.379 53.4519 446.59 53.3257 445.798 53.3489C444.882 53.3382 443.983 53.6088 443.225 54.1241C442.467 54.6074 441.89 55.3265 441.581 56.1706H441.519V53.783H439.907V67.6745H441.519V59.5194C441.539 58.8781 441.644 58.2421 441.829 57.628C442.003 57.0766 442.277 56.5617 442.636 56.1086C442.98 55.6867 443.414 55.3475 443.907 55.1163C444.449 54.8593 445.044 54.7319 445.643 54.7443C446.198 54.7207 446.75 54.8268 447.256 55.0543C447.676 55.2492 448.032 55.5615 448.279 55.9536C448.547 56.356 448.726 56.8103 448.806 57.2869C448.908 57.8288 448.96 58.3789 448.961 58.9303V67.5815H450.574V58.6512C450.588 57.9012 450.515 57.152 450.357 56.4187C450.264 55.813 450.007 55.2444 449.612 54.7753Z" fill="black"/>
<path d="M457.984 58.8683L463.597 53.721H461.457L454.14 60.4497V48.4187H452.527V67.6125H454.14V62.3412L456.744 60.0466L461.953 67.6125H464L457.984 58.8683Z" fill="black"/>
<path d="M330.388 37.3799L304 42.8062V47.2093L328.155 43.0233L342.047 48.1706V44.9768L330.388 37.3799Z" fill="black"/>
<path d="M304 48.8528V53.4109L324.806 51.6435L342.047 53.5349V49.5039L327.287 45.2869L304 48.8528Z" fill="black"/>
<path d="M304 54.8992V59.5504L320.899 60.7597L342.047 59.7054V54.9302L323.845 53.783L304 54.8992Z" fill="black"/>
<path d="M304 64.8528L317.55 69.1939L342.047 65.752V61.1318L319.938 62.8373L304 60.9768V64.8528Z" fill="black"/>
<path d="M304 69.2558L314.45 77.0387L342.047 71.8915V67.4574L316.62 71.4574L304 66.217V69.2558Z" fill="black"/>
<path d="M464 79.4574C464.032 79.1329 463.95 78.8076 463.769 78.5363C463.588 78.2651 463.319 78.0647 463.008 77.969L461.829 77.3488C461.457 77.1628 461.271 76.9768 461.271 76.7287V76.6047C461.274 76.5451 461.29 76.4867 461.316 76.4333C461.343 76.38 461.38 76.3327 461.426 76.2946C461.579 76.2133 461.749 76.1707 461.922 76.1706H463.473C463.498 76.1742 463.524 76.1719 463.548 76.1638C463.572 76.1557 463.594 76.1421 463.612 76.1241C463.631 76.106 463.644 76.084 463.652 76.0598C463.66 76.0356 463.663 76.0098 463.659 75.9845V75.4574C463.663 75.4321 463.66 75.4063 463.652 75.3821C463.644 75.3579 463.631 75.3359 463.612 75.3178C463.594 75.2997 463.572 75.2861 463.548 75.2781C463.524 75.27 463.498 75.2677 463.473 75.2713H461.705C460.682 75.2713 460.186 75.7364 460.186 76.6977C460.178 76.996 460.265 77.2891 460.434 77.5349C460.648 77.7842 460.912 77.985 461.209 78.124L462.357 78.6822C462.501 78.7283 462.627 78.8194 462.716 78.9421C462.806 79.0647 462.853 79.2127 462.853 79.3644V79.4884C462.853 79.8295 462.636 79.9845 462.171 79.9845H460.372C460.347 79.9809 460.321 79.9832 460.297 79.9912C460.273 79.9993 460.251 80.0129 460.232 80.031C460.214 80.049 460.201 80.071 460.193 80.0953C460.185 80.1195 460.182 80.1453 460.186 80.1706V80.6977C460.182 80.723 460.185 80.7487 460.193 80.773C460.201 80.7972 460.214 80.8192 460.232 80.8373C460.251 80.8553 460.273 80.8689 460.297 80.877C460.321 80.8851 460.347 80.8874 460.372 80.8837H462.326C463.473 80.9147 464 80.4186 464 79.4574ZM458.326 80.9147H459.008C459.07 80.9147 459.101 80.9147 459.132 80.8837C459.163 80.8527 459.163 80.8217 459.163 80.7287V75.4884C459.166 75.4631 459.164 75.4373 459.156 75.4131C459.148 75.3889 459.134 75.3669 459.116 75.3488C459.098 75.3307 459.076 75.3171 459.052 75.3091C459.028 75.301 459.002 75.2987 458.977 75.3023H458.295C458.171 75.3023 458.14 75.3644 458.14 75.4884V80.7287C458.136 80.754 458.138 80.7797 458.146 80.804C458.154 80.8282 458.168 80.8502 458.186 80.8683C458.204 80.8863 458.226 80.8999 458.25 80.908C458.275 80.9161 458.3 80.9184 458.326 80.9147ZM458.326 74.5271H459.008C459.033 74.5308 459.059 74.5285 459.083 74.5204C459.107 74.5123 459.129 74.4987 459.147 74.4807C459.165 74.4626 459.179 74.4406 459.187 74.4164C459.195 74.3921 459.197 74.3664 459.194 74.3411V73.3489C459.197 73.3236 459.195 73.2978 459.187 73.2736C459.179 73.2493 459.165 73.2273 459.147 73.2093C459.129 73.1912 459.107 73.1776 459.083 73.1695C459.059 73.1615 459.033 73.1592 459.008 73.1628H458.326C458.202 73.1628 458.171 73.2248 458.171 73.3489V74.3411C458.14 74.4651 458.202 74.5271 458.326 74.5271ZM453.736 80.7287V77.1628C453.736 76.5426 454.015 76.2326 454.605 76.2326H455.101C455.628 76.2326 455.876 76.5116 455.876 77.0388V80.6977C455.872 80.723 455.875 80.7487 455.883 80.773C455.891 80.7972 455.904 80.8192 455.922 80.8373C455.94 80.8553 455.962 80.8689 455.987 80.877C456.011 80.8851 456.037 80.8874 456.062 80.8837H456.744C456.769 80.8874 456.795 80.8851 456.819 80.877C456.844 80.8689 456.866 80.8553 456.884 80.8373C456.902 80.8192 456.915 80.7972 456.923 80.773C456.932 80.7487 456.934 80.723 456.93 80.6977V76.9768C456.964 76.5169 456.82 76.0616 456.527 75.7054C456.37 75.5582 456.184 75.444 455.982 75.3695C455.779 75.2949 455.564 75.2616 455.349 75.2713H454.884C454.326 75.2713 453.984 75.4574 453.798 75.8605H453.767V73.3489C453.771 73.3236 453.769 73.2978 453.761 73.2736C453.753 73.2493 453.739 73.2273 453.721 73.2093C453.703 73.1912 453.681 73.1776 453.657 73.1695C453.632 73.1615 453.607 73.1592 453.581 73.1628H452.899C452.874 73.1592 452.848 73.1615 452.824 73.1695C452.8 73.1776 452.778 73.1912 452.76 73.2093C452.742 73.2273 452.728 73.2493 452.72 73.2736C452.712 73.2978 452.71 73.3236 452.713 73.3489V80.6977C452.71 80.723 452.712 80.7487 452.72 80.773C452.728 80.7972 452.742 80.8192 452.76 80.8373C452.778 80.8553 452.8 80.8689 452.824 80.877C452.848 80.8851 452.874 80.8874 452.899 80.8837H453.581C453.674 80.9147 453.736 80.8527 453.736 80.7287ZM449.333 76.3256V79.2093C449.308 79.4354 449.333 79.6645 449.408 79.8793C449.483 80.0941 449.606 80.2893 449.767 80.4502C449.928 80.6111 450.123 80.7337 450.338 80.8088C450.553 80.8838 450.782 80.9094 451.008 80.8837H451.597C451.622 80.8874 451.648 80.8851 451.672 80.877C451.696 80.8689 451.718 80.8553 451.736 80.8373C451.755 80.8192 451.768 80.7972 451.776 80.773C451.784 80.7487 451.787 80.723 451.783 80.6977V80.1395C451.787 80.1143 451.784 80.0885 451.776 80.0643C451.768 80.04 451.755 80.018 451.736 80C451.718 79.9819 451.696 79.9683 451.672 79.9602C451.648 79.9522 451.622 79.9499 451.597 79.9535H451.194C451.085 79.9671 450.974 79.9556 450.87 79.9199C450.766 79.8842 450.671 79.8252 450.594 79.7474C450.516 79.6697 450.457 79.5752 450.421 79.4712C450.386 79.3672 450.374 79.2564 450.388 79.1473V76.3256C450.386 76.3089 450.388 76.2922 450.394 76.2765C450.4 76.2608 450.409 76.2466 450.421 76.2348C450.433 76.2229 450.447 76.2139 450.463 76.2081C450.478 76.2024 450.495 76.2001 450.512 76.2016H451.504C451.529 76.2052 451.555 76.2029 451.579 76.1948C451.603 76.1868 451.625 76.1732 451.643 76.1551C451.661 76.137 451.675 76.115 451.683 76.0908C451.691 76.0666 451.694 76.0408 451.69 76.0155V75.4574C451.694 75.4321 451.691 75.4063 451.683 75.3821C451.675 75.3579 451.661 75.3359 451.643 75.3178C451.625 75.2997 451.603 75.2861 451.579 75.2781C451.555 75.27 451.529 75.2677 451.504 75.2713H450.512C450.419 75.2713 450.388 75.2403 450.388 75.1473V74.1551C450.391 74.1298 450.389 74.104 450.381 74.0798C450.373 74.0555 450.359 74.0335 450.341 74.0155C450.323 73.9974 450.301 73.9838 450.277 73.9757C450.253 73.9677 450.227 73.9654 450.202 73.969H449.519C449.494 73.9654 449.468 73.9677 449.444 73.9757C449.42 73.9838 449.398 73.9974 449.38 74.0155C449.362 74.0335 449.348 74.0555 449.34 74.0798C449.332 74.104 449.33 74.1298 449.333 74.1551V75.1473C449.333 75.2093 449.302 75.2713 449.24 75.2713H448.744C448.719 75.2677 448.693 75.27 448.669 75.2781C448.645 75.2861 448.623 75.2997 448.605 75.3178C448.587 75.3359 448.573 75.3579 448.565 75.3821C448.557 75.4063 448.554 75.4321 448.558 75.4574V76.0155C448.558 76.0775 448.558 76.1395 448.589 76.1395C448.639 76.1565 448.691 76.1669 448.744 76.1706H449.24C449.302 76.2326 449.333 76.2636 449.333 76.3256ZM443.597 76.3256V79.2093C443.572 79.6639 443.728 80.1099 444.031 80.4496C444.374 80.7478 444.818 80.9032 445.271 80.8837H445.86C445.886 80.8874 445.911 80.8851 445.936 80.877C445.96 80.8689 445.982 80.8553 446 80.8373C446.018 80.8192 446.032 80.7972 446.04 80.773C446.048 80.7487 446.05 80.723 446.046 80.6977V80.1395C446.05 80.1143 446.048 80.0885 446.04 80.0643C446.032 80.04 446.018 80.018 446 80C445.982 79.9819 445.96 79.9683 445.936 79.9602C445.911 79.9522 445.886 79.9499 445.86 79.9535H445.457C445.348 79.9671 445.237 79.9556 445.133 79.9199C445.029 79.8842 444.935 79.8252 444.857 79.7474C444.779 79.6697 444.72 79.5752 444.685 79.4712C444.649 79.3672 444.638 79.2564 444.651 79.1473V76.3256C444.65 76.3089 444.652 76.2922 444.658 76.2765C444.663 76.2608 444.673 76.2466 444.684 76.2348C444.696 76.2229 444.71 76.2139 444.726 76.2081C444.742 76.2024 444.759 76.2001 444.775 76.2016H445.767C445.793 76.2052 445.818 76.2029 445.843 76.1948C445.867 76.1868 445.889 76.1732 445.907 76.1551C445.925 76.137 445.939 76.115 445.947 76.0908C445.955 76.0666 445.957 76.0408 445.953 76.0155V75.4574C445.957 75.4321 445.955 75.4063 445.947 75.3821C445.939 75.3579 445.925 75.3359 445.907 75.3178C445.889 75.2997 445.867 75.2861 445.843 75.2781C445.818 75.27 445.793 75.2677 445.767 75.2713H444.775C444.682 75.2713 444.651 75.2403 444.651 75.1473V74.1551C444.655 74.1298 444.652 74.104 444.644 74.0798C444.636 74.0555 444.623 74.0335 444.605 74.0155C444.587 73.9974 444.565 73.9838 444.54 73.9757C444.516 73.9677 444.49 73.9654 444.465 73.969H443.783C443.758 73.9654 443.732 73.9677 443.708 73.9757C443.683 73.9838 443.661 73.9974 443.643 74.0155C443.625 74.0335 443.612 74.0555 443.604 74.0798C443.596 74.104 443.593 74.1298 443.597 74.1551V75.1473C443.597 75.2093 443.566 75.2713 443.504 75.2713H443.008C442.982 75.2677 442.957 75.27 442.932 75.2781C442.908 75.2861 442.886 75.2997 442.868 75.3178C442.85 75.3359 442.836 75.3579 442.828 75.3821C442.82 75.4063 442.818 75.4321 442.822 75.4574V76.0155C442.822 76.0775 442.822 76.1395 442.853 76.1395C442.884 76.1395 442.915 76.1706 443.008 76.1706H443.504C443.566 76.2326 443.597 76.2636 443.597 76.3256ZM439.163 79.7675C439.023 79.5923 438.957 79.3702 438.977 79.1473V77.0078C438.957 76.7848 439.023 76.5628 439.163 76.3876C439.243 76.3186 439.337 76.2666 439.438 76.2347C439.54 76.2027 439.646 76.1914 439.752 76.2016H440.403C440.51 76.1912 440.618 76.2052 440.719 76.2426C440.82 76.2799 440.911 76.3396 440.986 76.4171C441.06 76.4947 441.116 76.5881 441.15 76.6904C441.183 76.7927 441.193 76.9012 441.178 77.0078V79.1473C441.178 79.6744 440.93 79.9535 440.403 79.9535H439.752C439.539 79.9685 439.328 79.902 439.163 79.7675ZM441.767 80.4496C442.066 80.107 442.221 79.6631 442.202 79.2093V77.0078C442.22 76.5447 442.065 76.0914 441.767 75.7364C441.608 75.583 441.418 75.465 441.209 75.3902C441.001 75.3154 440.779 75.2855 440.558 75.3023H439.628C439.407 75.2898 439.187 75.3217 438.979 75.3963C438.771 75.4709 438.581 75.5866 438.419 75.7364C438.115 76.0884 437.96 76.5439 437.984 77.0078V79.2093C437.959 79.6639 438.116 80.1099 438.419 80.4496C438.575 80.6098 438.764 80.7343 438.972 80.8146C439.181 80.8949 439.405 80.929 439.628 80.9147H440.558C440.781 80.9266 441.004 80.8913 441.212 80.8112C441.421 80.731 441.61 80.6078 441.767 80.4496ZM434.915 79.6744H434.419C433.922 79.6744 433.674 79.3954 433.674 78.8682V77.0388C433.674 76.4806 433.922 76.2326 434.419 76.2326H435.69C435.783 76.2326 435.814 76.2636 435.814 76.3566V78.7752C435.83 78.897 435.817 79.0208 435.778 79.1371C435.738 79.2533 435.672 79.359 435.585 79.4458C435.498 79.5327 435.393 79.5984 435.277 79.6381C435.16 79.6777 435.037 79.6901 434.915 79.6744ZM435.752 80.0465H435.783V80.8837C435.783 81.4419 435.535 81.6899 435.008 81.6899H433.178C433.153 81.6863 433.127 81.6886 433.103 81.6967C433.079 81.7047 433.057 81.7183 433.039 81.7364C433.021 81.7545 433.007 81.7765 432.999 81.8007C432.991 81.8249 432.989 81.8507 432.992 81.876V82.4341C432.989 82.4594 432.991 82.4852 432.999 82.5094C433.007 82.5336 433.021 82.5556 433.039 82.5737C433.057 82.5918 433.079 82.6054 433.103 82.6134C433.127 82.6215 433.153 82.6238 433.178 82.6202H435.194C435.414 82.6327 435.635 82.6008 435.843 82.5262C436.05 82.4516 436.241 82.3359 436.403 82.1861C436.701 81.8435 436.857 81.3995 436.837 80.9457V75.4884C436.841 75.4631 436.839 75.4373 436.83 75.4131C436.822 75.3889 436.809 75.3669 436.791 75.3488C436.773 75.3307 436.751 75.3171 436.726 75.3091C436.702 75.301 436.676 75.2987 436.651 75.3023H434.264C434.043 75.2898 433.822 75.3217 433.615 75.3963C433.407 75.4709 433.216 75.5866 433.054 75.7364C432.751 76.0884 432.596 76.5439 432.62 77.0078V78.9302C432.586 79.3901 432.73 79.8454 433.023 80.2016C433.175 80.3572 433.359 80.4769 433.563 80.552C433.767 80.6271 433.985 80.6557 434.202 80.6357H434.667C434.886 80.6581 435.107 80.6139 435.3 80.5088C435.494 80.4036 435.651 80.2425 435.752 80.0465ZM426.388 77.7209V77.0078C426.368 76.7848 426.434 76.5628 426.574 76.3876C426.654 76.3186 426.748 76.2666 426.849 76.2347C426.95 76.2027 427.057 76.1914 427.163 76.2016H427.752C427.858 76.1914 427.964 76.2027 428.065 76.2347C428.167 76.2666 428.26 76.3186 428.341 76.3876C428.48 76.5628 428.547 76.7848 428.527 77.0078V77.7209C428.527 77.783 428.496 77.845 428.434 77.845H426.543C426.419 77.845 426.388 77.814 426.388 77.7209ZM429.488 80.7287V80.1706C429.492 80.1453 429.49 80.1195 429.482 80.0953C429.474 80.071 429.46 80.049 429.442 80.031C429.424 80.0129 429.402 79.9993 429.378 79.9912C429.353 79.9832 429.328 79.9809 429.302 79.9845H427.163C426.636 79.9845 426.388 79.7054 426.388 79.1783V78.7132C426.386 78.6965 426.388 78.6798 426.394 78.6641C426.4 78.6484 426.409 78.6342 426.421 78.6223C426.433 78.6105 426.447 78.6014 426.463 78.5957C426.478 78.59 426.495 78.5877 426.512 78.5892H429.364C429.39 78.5928 429.415 78.5905 429.44 78.5824C429.464 78.5744 429.486 78.5608 429.504 78.5427C429.522 78.5246 429.536 78.5026 429.544 78.4784C429.552 78.4542 429.554 78.4284 429.55 78.4031V77.0078C429.569 76.5447 429.414 76.0914 429.116 75.7364C428.952 75.5804 428.757 75.461 428.543 75.3862C428.329 75.3113 428.102 75.2828 427.876 75.3023H427.008C426.787 75.2898 426.567 75.3217 426.359 75.3963C426.151 75.4709 425.961 75.5866 425.798 75.7364C425.495 76.0884 425.34 76.5439 425.364 77.0078V79.2093C425.339 79.6639 425.495 80.1099 425.798 80.4496C425.955 80.6098 426.143 80.7343 426.352 80.8146C426.561 80.8949 426.785 80.929 427.008 80.9147H429.302C429.328 80.9184 429.353 80.9161 429.378 80.908C429.402 80.8999 429.424 80.8863 429.442 80.8683C429.46 80.8502 429.474 80.8282 429.482 80.804C429.49 80.7797 429.492 80.754 429.488 80.7287ZM420.31 75.4884L421.736 80.7287C421.74 80.7573 421.75 80.7849 421.764 80.8098C421.779 80.8347 421.798 80.8565 421.821 80.8738C421.844 80.8912 421.871 80.9037 421.899 80.9107C421.927 80.9178 421.956 80.9191 421.984 80.9147H423.008C423.065 80.919 423.121 80.9025 423.167 80.8683C423.212 80.8341 423.244 80.7845 423.256 80.7287L424.682 75.4884C424.713 75.3644 424.682 75.3023 424.558 75.3023H423.845C423.792 75.2989 423.739 75.3164 423.699 75.3512C423.658 75.3859 423.633 75.4352 423.628 75.4884L422.543 79.9225H422.481L421.364 75.4884C421.36 75.4352 421.334 75.3859 421.294 75.3512C421.253 75.3164 421.201 75.2989 421.147 75.3023H420.434C420.341 75.3023 420.31 75.3644 420.31 75.4884ZM419.504 75.4574L419.721 73.876C419.721 73.814 419.721 73.783 419.69 73.752C419.659 73.7209 419.628 73.7209 419.566 73.7209H418.946C418.822 73.7209 418.76 73.783 418.791 73.876L419.008 75.4264C419.004 75.4516 419.006 75.4774 419.014 75.5016C419.023 75.5259 419.036 75.5479 419.054 75.566C419.072 75.584 419.094 75.5976 419.119 75.6057C419.143 75.6137 419.169 75.616 419.194 75.6124H419.318C419.362 75.6113 419.404 75.5953 419.438 75.5672C419.472 75.5391 419.495 75.5004 419.504 75.4574ZM416.93 80.3256H416.961V80.7287C416.958 80.754 416.96 80.7797 416.968 80.804C416.976 80.8282 416.99 80.8502 417.008 80.8683C417.026 80.8863 417.048 80.8999 417.072 80.908C417.096 80.9161 417.122 80.9184 417.147 80.9147H417.829C417.855 80.9184 417.88 80.9161 417.905 80.908C417.929 80.8999 417.951 80.8863 417.969 80.8683C417.987 80.8502 418.001 80.8282 418.009 80.804C418.017 80.7797 418.019 80.754 418.015 80.7287V75.4884C418.019 75.4631 418.017 75.4373 418.009 75.4131C418.001 75.3889 417.987 75.3669 417.969 75.3488C417.951 75.3307 417.929 75.3171 417.905 75.3091C417.88 75.301 417.855 75.2987 417.829 75.3023H417.147C417.122 75.2987 417.096 75.301 417.072 75.3091C417.048 75.3171 417.026 75.3307 417.008 75.3488C416.99 75.3669 416.976 75.3889 416.968 75.4131C416.96 75.4373 416.958 75.4631 416.961 75.4884V79.0543C416.961 79.6744 416.682 79.9845 416.093 79.9845H415.597C415.49 79.9948 415.382 79.9808 415.281 79.9435C415.18 79.9062 415.089 79.8465 415.014 79.7689C414.94 79.6914 414.884 79.598 414.85 79.4957C414.817 79.3934 414.807 79.2849 414.822 79.1783V75.4884C414.825 75.4631 414.823 75.4373 414.815 75.4131C414.807 75.3889 414.793 75.3669 414.775 75.3488C414.757 75.3307 414.735 75.3171 414.711 75.3091C414.687 75.301 414.661 75.2987 414.636 75.3023H413.953C413.928 75.2987 413.902 75.301 413.878 75.3091C413.854 75.3171 413.832 75.3307 413.814 75.3488C413.796 75.3669 413.782 75.3889 413.774 75.4131C413.766 75.4373 413.764 75.4631 413.767 75.4884V79.2093C413.733 79.6692 413.878 80.1245 414.171 80.4806C414.322 80.6362 414.507 80.756 414.711 80.8311C414.914 80.9062 415.132 80.9348 415.349 80.9147H415.814C416.403 80.9147 416.744 80.6977 416.93 80.3256ZM409.674 79.7675C409.535 79.5923 409.468 79.3702 409.488 79.1473V77.0078C409.468 76.7848 409.535 76.5628 409.674 76.3876C409.755 76.3186 409.849 76.2666 409.95 76.2347C410.051 76.2027 410.158 76.1914 410.264 76.2016H410.915C411.022 76.1912 411.13 76.2052 411.231 76.2426C411.332 76.2799 411.423 76.3396 411.497 76.4171C411.572 76.4947 411.628 76.5881 411.661 76.6904C411.695 76.7927 411.704 76.9012 411.69 77.0078V79.1473C411.69 79.6744 411.442 79.9535 410.915 79.9535H410.264C410.158 79.9636 410.051 79.9524 409.95 79.9204C409.849 79.8884 409.755 79.8364 409.674 79.7675ZM412.279 80.4496C412.433 80.2839 412.551 80.0882 412.625 79.8747C412.7 79.6613 412.73 79.4348 412.713 79.2093V77.0078C412.732 76.5447 412.577 76.0914 412.279 75.7364C412.119 75.583 411.929 75.465 411.721 75.3902C411.512 75.3154 411.291 75.2855 411.07 75.3023H410.14C409.919 75.2898 409.698 75.3217 409.491 75.3963C409.283 75.4709 409.092 75.5866 408.93 75.7364C408.627 76.0884 408.471 76.5439 408.496 77.0078V79.2093C408.471 79.6639 408.627 80.1099 408.93 80.4496C409.086 80.6098 409.275 80.7343 409.484 80.8146C409.693 80.8949 409.916 80.929 410.14 80.9147H411.07C411.292 80.9236 411.514 80.8869 411.722 80.8069C411.93 80.7269 412.12 80.6054 412.279 80.4496ZM406.481 80.7287V78.3101L408.465 74.062C408.48 74.0391 408.489 74.0121 408.489 73.9845C408.489 73.9569 408.48 73.9299 408.465 73.907C408.45 73.8881 408.432 73.8727 408.41 73.862C408.389 73.8512 408.365 73.8454 408.341 73.845H407.504C407.452 73.8463 407.402 73.8655 407.362 73.8994C407.323 73.9333 407.296 73.9798 407.287 74.031L405.984 77.0698H405.922L404.62 74.031C404.558 73.907 404.496 73.845 404.403 73.845H403.566C403.542 73.8454 403.518 73.8512 403.497 73.862C403.475 73.8727 403.457 73.8881 403.442 73.907C403.427 73.9299 403.418 73.9569 403.418 73.9845C403.418 74.0121 403.427 74.0391 403.442 74.062L405.426 78.3101V80.7287C405.423 80.754 405.425 80.7797 405.433 80.804C405.441 80.8282 405.455 80.8502 405.473 80.8683C405.491 80.8863 405.513 80.8999 405.537 80.908C405.561 80.9161 405.587 80.9184 405.612 80.9147H406.295C406.32 80.9184 406.346 80.9161 406.37 80.908C406.394 80.8999 406.416 80.8863 406.434 80.8683C406.452 80.8502 406.466 80.8282 406.474 80.804C406.482 80.7797 406.484 80.754 406.481 80.7287Z" fill="black"/>
</g>
<rect width="256" height="120" transform="translate(512)" fill="white"/>
<g clip-path="url(#clip2_309_12676)">
<path fill-rule="evenodd" clip-rule="evenodd" d="M605.097 61.9623C605.894 61.9122 606.881 61.9122 607.423 61.9122C611.152 61.9122 613.158 62.5138 614.752 63.8171C615.563 64.4974 616.206 65.3557 616.631 66.3252C617.056 67.2946 617.252 68.3491 617.203 69.4066C617.241 70.4696 617.037 71.5274 616.606 72.5C616.175 73.4726 615.529 74.3346 614.717 75.0211C613.253 76.2242 611.273 76.9009 607.453 76.9009C605.382 76.9009 605.097 76.6653 605.097 75.0211V61.9623ZM601.558 74.8155C601.558 76.5651 601.237 76.931 598.53 76.931V77.6378H608.44C617.78 77.6378 621.063 72.8805 621.063 69.0406C621.064 67.9648 620.817 66.9033 620.341 65.9383C619.866 64.9734 619.175 64.1309 618.321 63.4762C616.376 61.8821 612.902 61.1753 608.089 61.1753C606.876 61.1753 605.252 61.1753 603.533 61.2254C602.194 61.2756 599.452 61.3808 598.53 61.3808V62.0876C600.951 62.0626 601.558 62.4787 601.558 64.3836V74.8155Z" fill="black"/>
<path d="M623.8 62.0927C626.001 62.0676 626.412 62.6391 626.412 64.0527V74.6852C626.412 76.1741 626.317 76.9862 623.8 76.931V77.6378H632.693V76.931C630.397 76.9811 629.951 76.4598 629.951 74.4997V64.3435C629.951 62.4887 630.558 62.0977 632.693 62.0977V61.3909H623.8V62.0927Z" fill="black"/>
<path d="M636.062 77.8734H636.829C636.944 77.7693 637.08 77.6902 637.227 77.641C637.375 77.5918 637.531 77.5737 637.686 77.5877C638.578 77.5877 639.566 78.0589 641.957 78.0589C646.037 78.0589 648.81 76.2292 648.81 73.5372C648.81 68.4942 638.739 67.4515 638.739 63.9524C638.739 62.8045 639.821 61.8119 641.862 61.8119C642.956 61.8019 644.029 62.1103 644.952 62.6995C645.874 63.2887 646.604 64.1333 647.055 65.1305H648.013L647.311 61.08H646.514C646.396 61.1928 646.255 61.279 646.101 61.3326C645.947 61.3862 645.784 61.4061 645.621 61.3908C645.053 61.3669 644.488 61.2964 643.932 61.1803C643.121 61.0392 642.299 60.9688 641.476 60.9697C638.067 60.9697 635.641 62.5388 635.641 64.7846C635.641 69.3313 645.682 70.765 645.682 74.4245C645.682 75.9935 644.057 77.1165 641.731 77.1165C638.989 77.1165 637.014 75.7579 636.217 73.3567H635.26L636.062 77.8734Z" fill="black"/>
<path d="M648.775 65.4363H649.697C650.178 62.7193 650.81 62.5639 652.69 62.5639H657.246V74.8707C657.246 76.5951 656.735 76.936 653.547 76.936V77.6428H664.48V76.936C661.131 76.936 660.781 76.6503 660.781 74.8707V62.5639H665.337C667.252 62.5639 667.889 62.7193 668.335 65.4363H669.257L668.686 60.9447H667.824C667.633 61.3357 667.378 61.3909 665.753 61.3909H652.274C651.751 61.4063 651.228 61.3812 650.71 61.3157C650.602 61.2974 650.5 61.255 650.412 61.1916C650.323 61.1282 650.25 61.0455 650.198 60.9497H649.336L648.775 65.4363Z" fill="black"/>
<path d="M687.52 77.6379L687.996 73.5373H687.134C686.277 76.0989 685.635 76.4648 682.417 76.4648H678.877C677.248 76.4648 676.998 76.2042 676.998 74.585V69.8327H681.935C683.69 69.8327 684.101 70.0683 684.327 71.9231H685.189V66.6645H684.327C684.136 68.4692 683.785 68.6496 681.935 68.6496H676.998V62.5639H682.607C684.647 62.5639 685.154 62.614 685.79 64.7596L685.951 65.306H686.808L686.522 61.3859H670.235V62.0927C672.406 62.0927 673.453 62.1478 673.453 63.8673V75.1264C673.453 76.5901 672.812 76.931 670.235 76.931V77.6379H687.52Z" fill="black"/>
<path d="M705.932 77.6379L708.389 73.6927H707.431C705.045 76.3596 704.849 76.4598 702.142 76.4598H698.859C697.395 76.4598 697.14 76.2493 697.14 75.1815V64.158C697.14 62.198 697.521 62.0927 700.964 62.0927V61.3859H690.512V62.0927C693.38 62.0426 693.605 62.5639 693.605 64.3385V74.6802C693.605 76.7456 693.064 76.926 690.512 76.926V77.6328H705.932" fill="black"/>
<path d="M724.32 77.6379L726.771 73.6927H725.814C723.422 76.3596 723.232 76.4598 720.525 76.4598H717.241C715.778 76.4598 715.522 76.2493 715.522 75.1815V64.158C715.522 62.198 715.903 62.0927 719.347 62.0927V61.3859H708.89V62.0927C711.757 62.0426 711.983 62.5639 711.983 64.3385V74.6802C711.983 76.7456 711.441 76.926 708.89 76.926V77.6328H724.32" fill="black"/>
<path d="M558.055 49.3146C558.301 47.7105 559.659 46.5976 561.088 46.8332C562.517 47.0688 563.479 48.5627 563.229 50.1668C562.983 51.771 561.624 52.8839 560.196 52.6483C558.767 52.4126 557.81 50.9188 558.055 49.3146Z" fill="black"/>
<path d="M564.161 50.3172C564.407 48.7131 565.765 47.6002 567.194 47.8358C568.622 48.0714 569.58 49.5602 569.339 51.1694C569.094 52.7786 567.735 53.8864 566.306 53.6508C564.873 53.4202 563.91 51.9264 564.161 50.3172Z" fill="black"/>
<path d="M570.262 51.3249C570.507 49.7207 571.866 48.6079 573.295 48.8435C574.723 49.0791 575.686 50.573 575.44 52.1771C575.194 53.7812 573.836 54.8941 572.407 54.6585C570.974 54.4229 570.016 52.929 570.262 51.3249Z" fill="black"/>
<path d="M566.301 56.7539C566.547 55.1497 567.906 54.0368 569.334 54.2724C570.763 54.508 571.72 56.0019 571.475 57.6061C571.229 59.2152 569.871 60.3231 568.442 60.0875C567.013 59.8519 566.056 58.358 566.301 56.7539Z" fill="black"/>
<path d="M560.206 55.7111C560.451 54.107 561.81 52.9941 563.239 53.2297C564.667 53.4653 565.625 54.9592 565.379 56.5633C565.134 58.1675 563.775 59.2803 562.346 59.0447C560.918 58.8091 559.96 57.3153 560.206 55.7111Z" fill="black"/>
<path d="M562.346 61.9673C562.592 60.3632 563.95 59.2503 565.379 59.4859C566.808 59.7215 567.77 61.2154 567.52 62.8196C567.274 64.4237 565.915 65.5366 564.487 65.301C563.063 65.0654 562.101 63.5715 562.346 61.9673Z" fill="black"/>
<path fill-rule="evenodd" clip-rule="evenodd" d="M564.758 78.3096C565.946 79.1267 566.312 79.3773 567.139 79.8836C567.495 80.1594 567.7 79.8736 567.69 79.7583C569.329 65.311 625.655 64.2282 576.653 30.9622C576.538 30.877 576.428 30.9873 576.473 31.1227C576.934 32.5463 577.255 35.2032 576.563 36.5818C573.846 34.4863 570.888 32.5112 566.993 30.0348C566.823 29.9246 566.627 30.09 566.758 30.3356C573.6 47.1892 516.047 41.3441 564.758 78.3096ZM569.861 36.3411C567.485 49.1192 528.559 45.0687 562.828 72.1086C562.853 72.1249 562.873 72.1484 562.884 72.1762C562.896 72.2039 562.899 72.2345 562.893 72.264C562.888 72.264 562.883 72.2339 562.903 72.1487C566.863 56.9795 604.36 59.1501 570.227 36.1557C570.046 36.0504 569.916 35.8549 569.861 36.3411ZM565.399 73.9283C565.976 74.4145 565.981 74.3744 566.397 74.7002C574.142 60.8094 612.506 61.9022 580.112 37.2034C580.049 37.8061 579.918 38.3997 579.721 38.9729C604.946 60.4334 569.329 60.6289 565.399 73.9282V73.9283Z" fill="black"/>
</g>
<rect width="256" height="120" transform="translate(768)" fill="white"/>
<g clip-path="url(#clip3_309_12676)">
<path d="M878.386 50.3435C879.153 50.3435 882.53 50.1135 886.597 53.1809C886.683 53.2564 886.738 53.3603 886.752 53.4732C886.766 53.5861 886.738 53.7003 886.674 53.7944L884.756 56.5552C884.724 56.6053 884.682 56.6479 884.632 56.6797C884.582 56.7116 884.526 56.7319 884.467 56.7393C884.408 56.7466 884.348 56.7408 884.292 56.7222C884.236 56.7036 884.184 56.6728 884.142 56.6319C883.607 56.2318 883.042 55.8729 882.453 55.5582C881.223 54.8998 879.857 54.5325 878.462 54.4846C877.158 54.4846 875.009 54.9447 875.009 57.0153C875.009 58.7024 876.467 59.3159 881.072 60.4662C884.065 61.2331 887.518 62.6901 887.518 67.2147C887.518 71.4325 884.065 74.0398 879.23 74.0398C876.313 74.0398 872.323 72.9662 869.79 70.4355C869.753 70.4011 869.724 70.3595 869.704 70.3134C869.684 70.2672 869.674 70.2174 869.674 70.1671C869.674 70.1168 869.684 70.0671 869.704 70.0209C869.724 69.9747 869.753 69.9332 869.79 69.8987L872.016 67.2914C872.053 67.2463 872.1 67.2101 872.153 67.1852C872.206 67.1603 872.264 67.1474 872.323 67.1474C872.381 67.1474 872.439 67.1603 872.492 67.1852C872.545 67.2101 872.592 67.2463 872.63 67.2914C874.424 68.9778 876.768 69.9584 879.23 70.0521C883.221 70.0521 883.067 67.6748 883.067 67.2914C883.067 66.5245 882.53 65.4509 880.534 64.9141C878.539 64.3773 873.704 63.457 871.862 61.3098C870.954 60.2145 870.489 58.8194 870.557 57.3987C870.481 54.7147 872.092 50.3435 878.386 50.3435Z" fill="black"/>
<path d="M898.877 55.7883C897.833 55.7973 896.804 56.0355 895.862 56.4861C894.92 56.9366 894.089 57.5886 893.428 58.3957V56.6319C893.43 56.5709 893.42 56.5101 893.397 56.4533C893.375 56.3965 893.341 56.3449 893.298 56.3018C893.255 56.2586 893.203 56.2248 893.146 56.2024C893.089 56.1801 893.028 56.1696 892.967 56.1718H889.36C889.299 56.1696 889.238 56.1801 889.182 56.2024C889.125 56.2248 889.073 56.2586 889.03 56.3018C888.987 56.3449 888.953 56.3965 888.93 56.4533C888.908 56.5101 888.898 56.5709 888.9 56.6319V78.411C888.898 78.472 888.908 78.5328 888.93 78.5896C888.953 78.6464 888.987 78.698 889.03 78.7412C889.073 78.7843 889.125 78.8181 889.182 78.8405C889.238 78.8629 889.299 78.8733 889.36 78.8712H892.967C893.028 78.8733 893.089 78.8629 893.146 78.8405C893.203 78.8181 893.255 78.7843 893.298 78.7412C893.341 78.698 893.375 78.6464 893.397 78.5896C893.42 78.5328 893.43 78.472 893.428 78.411V71.6626C894.126 72.45 894.991 73.0719 895.961 73.4831C896.93 73.8944 897.978 74.0846 899.03 74.0399C902.1 74.0399 907.012 71.5859 907.012 65.0675C907.012 58.5491 902.407 55.7883 898.877 55.7883ZM897.879 70.0521C895.423 70.0521 893.351 67.9049 893.351 64.8374C893.351 62.9969 894.502 59.6994 897.879 59.6994C901.256 59.6994 902.484 62.3834 902.484 64.8374C902.484 67.2914 901.102 70.0521 897.879 70.0521Z" fill="black"/>
<path d="M917.449 55.7884C916.245 55.7813 915.05 56.012 913.935 56.4671C912.819 56.9223 911.804 57.593 910.949 58.4408C910.093 59.2886 909.413 60.2968 908.949 61.4077C908.484 62.5185 908.243 63.7101 908.24 64.9141C908.235 66.1233 908.474 67.321 908.942 68.4361C909.41 69.5512 910.098 70.5609 910.964 71.4051C911.83 72.2493 912.858 72.9108 913.985 73.3503C915.112 73.7897 916.317 73.9982 917.526 73.9632C918.721 73.9582 919.902 73.7181 921.004 73.2568C922.105 72.7955 923.105 72.1219 923.946 71.2745C924.787 70.427 925.452 69.4224 925.905 68.318C926.357 67.2135 926.587 66.0308 926.582 64.8374C926.577 63.6441 926.337 62.4634 925.875 61.3628C925.414 60.2621 924.74 59.2632 923.891 58.4229C923.043 57.5826 922.038 56.9175 920.933 56.4654C919.827 56.0134 918.644 55.7833 917.449 55.7884ZM917.526 70.0522C916.865 70.0305 916.215 69.878 915.613 69.6035C915.011 69.329 914.469 68.9379 914.02 68.453C913.57 67.968 913.221 67.3988 912.993 66.7782C912.765 66.1576 912.662 65.4979 912.691 64.8374C912.691 61.5399 914.994 59.6994 917.526 59.6994C918.182 59.7162 918.829 59.8628 919.428 60.1308C920.027 60.3988 920.567 60.7828 921.016 61.2606C921.466 61.7384 921.816 62.3005 922.047 62.9145C922.278 63.5284 922.385 64.182 922.361 64.8374C922.361 68.3651 919.829 70.0522 917.526 70.0522Z" fill="black"/>
<path d="M938.248 59.6227V56.5552C938.25 56.4942 938.239 56.4334 938.217 56.3766C938.195 56.3198 938.161 56.2682 938.118 56.2251C938.074 56.1819 938.023 56.1481 937.966 56.1257C937.909 56.1034 937.848 56.0929 937.787 56.0951H933.643V51.8773C933.645 51.8163 933.635 51.7555 933.612 51.6987C933.59 51.6419 933.556 51.5903 933.513 51.5471C933.47 51.504 933.418 51.4702 933.361 51.4478C933.304 51.4254 933.243 51.415 933.182 51.4171H929.652C929.591 51.415 929.53 51.4254 929.473 51.4478C929.417 51.4702 929.365 51.504 929.322 51.5471C929.279 51.5903 929.245 51.6419 929.222 51.6987C929.2 51.7555 929.189 51.8163 929.192 51.8773V56.0951H927.426C927.365 56.0929 927.305 56.1034 927.248 56.1257C927.191 56.1481 927.139 56.1819 927.096 56.2251C927.053 56.2682 927.019 56.3198 926.997 56.3766C926.974 56.4334 926.964 56.4942 926.966 56.5552V59.6227C926.964 59.6837 926.974 59.7445 926.997 59.8013C927.019 59.858 927.053 59.9096 927.096 59.9528C927.139 59.9959 927.191 60.0298 927.248 60.0521C927.305 60.0745 927.365 60.0849 927.426 60.0828H929.192V68.8251C929.192 70.819 930.113 73.8865 934.027 73.8865C935.383 73.8678 936.719 73.5538 937.941 72.9662C938.011 72.9303 938.07 72.8753 938.111 72.8075C938.152 72.7397 938.172 72.6618 938.171 72.5828V69.592C938.175 69.5278 938.16 69.4639 938.13 69.4074C938.099 69.3509 938.053 69.304 937.998 69.2722C937.942 69.2403 937.878 69.2246 937.814 69.2269C937.749 69.2292 937.687 69.2494 937.634 69.2852C937.031 69.7153 936.301 69.9312 935.562 69.8987C933.72 69.8987 933.566 68.5951 933.566 67.7515V60.0828H937.71C937.842 60.0894 937.971 60.0453 938.071 59.9597C938.171 59.8741 938.234 59.7535 938.248 59.6227Z" fill="black"/>
<path d="M942.238 54.0245C943.764 54.0245 945.001 52.7885 945.001 51.2638C945.001 49.7391 943.764 48.5031 942.238 48.5031C940.713 48.5031 939.476 49.7391 939.476 51.2638C939.476 52.7885 940.713 54.0245 942.238 54.0245Z" fill="black"/>
<path d="M943.39 73.5797H941.164C941.022 73.5829 940.881 73.5573 940.749 73.5044C940.617 73.4516 940.498 73.3726 940.397 73.2723C940.297 73.172 940.218 73.0523 940.165 72.9207C940.112 72.789 940.086 72.648 940.09 72.5061V57.2454C940.086 57.1035 940.112 56.9625 940.165 56.8308C940.218 56.6992 940.297 56.5796 940.397 56.4792C940.498 56.3789 940.617 56.2999 940.749 56.2471C940.881 56.1942 941.022 56.1686 941.164 56.1718H943.39C943.532 56.1686 943.673 56.1942 943.805 56.2471C943.936 56.2999 944.056 56.3789 944.156 56.4792C944.257 56.5796 944.336 56.6992 944.389 56.8308C944.442 56.9625 944.467 57.1035 944.464 57.2454V72.5061C944.467 72.648 944.442 72.789 944.389 72.9207C944.336 73.0523 944.257 73.172 944.156 73.2723C944.056 73.3726 943.936 73.4516 943.805 73.5044C943.673 73.5573 943.532 73.5829 943.39 73.5797Z" fill="black"/>
<path d="M948.378 60.0828H946.69C946.629 60.085 946.568 60.0745 946.511 60.0522C946.454 60.0298 946.403 59.996 946.359 59.9528C946.316 59.9097 946.282 59.8581 946.26 59.8013C946.238 59.7445 946.227 59.6837 946.229 59.6227V56.5552C946.227 56.4942 946.238 56.4334 946.26 56.3766C946.282 56.3198 946.316 56.2683 946.359 56.2251C946.403 56.1819 946.454 56.1481 946.511 56.1258C946.568 56.1034 946.629 56.093 946.69 56.0951H948.378V54.9448C948.378 54.1779 948.532 49.5 953.75 49.5C956.36 49.5 957.204 50.1135 957.204 50.1135V53.2577C957.204 53.5644 957.127 53.8712 956.744 53.7178C956.053 53.4743 955.327 53.3448 954.595 53.3344C954.338 53.3161 954.08 53.3532 953.839 53.4431C953.598 53.533 953.379 53.6736 953.197 53.8554C953.016 54.0372 952.875 54.256 952.785 54.4968C952.695 54.7377 952.658 54.9951 952.676 55.2515V56.0951H959.123C959.212 56.0947 959.299 56.125 959.369 56.1808C959.439 56.2366 959.487 56.3146 959.506 56.4018L964.034 68.135L968.102 56.4785C968.135 56.3991 968.187 56.3292 968.254 56.2755C968.321 56.2219 968.401 56.1862 968.486 56.1718H972.477C972.521 56.1738 972.564 56.1867 972.602 56.2094C972.64 56.2321 972.672 56.2639 972.695 56.3018C972.717 56.3398 972.73 56.3828 972.733 56.427C972.735 56.4712 972.726 56.5152 972.707 56.5552C971.786 58.9325 966.49 72.6595 965.8 74.3466C965.032 76.2638 963.804 78.8712 960.12 78.8712C958.689 78.9128 957.277 78.54 956.053 77.7976C955.974 77.7357 955.916 77.6504 955.889 77.554C955.861 77.4576 955.865 77.355 955.899 77.2607L957.204 74.5C957.215 74.4708 957.233 74.4447 957.256 74.424C957.279 74.4032 957.307 74.3884 957.337 74.3809C957.368 74.3733 957.399 74.3732 957.429 74.3806C957.46 74.388 957.488 74.4027 957.511 74.4233C958.179 74.8464 958.947 75.0846 959.737 75.1135C961.195 75.1135 961.809 73.4264 961.809 73.4264L956.283 60.1595H952.599V73.273C952.601 73.334 952.591 73.3948 952.569 73.4516C952.546 73.5084 952.512 73.56 952.469 73.6031C952.426 73.6463 952.374 73.6801 952.317 73.7025C952.261 73.7248 952.2 73.7353 952.139 73.7331H948.532C948.471 73.7353 948.41 73.7248 948.353 73.7025C948.296 73.6801 948.244 73.6463 948.201 73.6031C948.158 73.56 948.124 73.5084 948.102 73.4516C948.079 73.3948 948.069 73.334 948.071 73.273L948.378 60.0828Z" fill="black"/>
<path d="M975.086 57.322H976.391C976.546 57.3004 976.704 57.3171 976.851 57.3706C976.998 57.424 977.13 57.5127 977.235 57.6288C977.317 57.7226 977.38 57.8321 977.42 57.9506C977.459 58.0691 977.475 58.1944 977.465 58.319C977.475 58.5179 977.421 58.7148 977.31 58.8805C977.2 59.0462 977.039 59.172 976.851 59.2392L977.542 60.2362H976.774L976.16 59.3159H975.7V60.2362H975.086V57.322ZM976.391 58.7791C976.698 58.7791 976.851 58.6257 976.851 58.3957C976.851 58.0889 976.698 58.0122 976.314 58.0122H975.7V58.8558H976.391V58.7791Z" fill="black"/>
<path d="M976.237 61.6166C975.691 61.6166 975.157 61.4547 974.702 61.1513C974.248 60.8479 973.894 60.4168 973.685 59.9123C973.475 59.4079 973.421 58.8528 973.527 58.3172C973.634 57.7817 973.897 57.2898 974.283 56.9037C974.67 56.5176 975.162 56.2547 975.698 56.1481C976.234 56.0416 976.79 56.0963 977.294 56.3052C977.799 56.5142 978.231 56.868 978.534 57.322C978.838 57.776 979 58.3098 979 58.8558C978.99 59.5849 978.696 60.2814 978.18 60.797C977.664 61.3126 976.967 61.6066 976.237 61.6166ZM976.237 56.4018C975.586 56.4018 974.961 56.6604 974.501 57.1206C974.04 57.5808 973.781 58.205 973.781 58.8558C973.781 59.5067 974.04 60.1308 974.501 60.5911C974.961 61.0513 975.586 61.3098 976.237 61.3098C976.561 61.3139 976.882 61.2533 977.182 61.1314C977.482 61.0095 977.754 60.8289 977.983 60.6002C978.212 60.3715 978.392 60.0994 978.514 59.7998C978.636 59.5002 978.697 59.1792 978.693 58.8558C978.689 58.2062 978.429 57.5844 977.969 57.125C977.51 56.6657 976.887 56.4059 976.237 56.4018Z" fill="black"/>
<path d="M837.019 37C832.071 37 827.234 38.4662 823.119 41.2133C819.005 43.9603 815.798 47.8648 813.904 52.4329C812.011 57.0011 811.515 62.0277 812.481 66.8773C813.446 71.7268 815.829 76.1814 819.328 79.6777C822.827 83.174 827.285 85.555 832.138 86.5196C836.992 87.4843 842.022 86.9892 846.594 85.097C851.165 83.2048 855.073 80.0005 857.822 75.8893C860.571 71.778 862.039 66.9445 862.039 62C862.037 55.3702 859.4 49.0125 854.708 44.3246C850.017 39.6366 843.654 37.002 837.019 37V37ZM848.455 73.1196C848.226 73.481 847.866 73.7392 847.451 73.8394C847.035 73.9397 846.597 73.874 846.229 73.6564C836.405 67.7515 824.663 71.1258 824.586 71.2025C824.169 71.3132 823.726 71.2646 823.343 71.0661C822.959 70.8675 822.664 70.5333 822.514 70.1288C822.386 69.7119 822.427 69.2613 822.628 68.874C822.829 68.4868 823.174 68.1938 823.589 68.0583C824.126 67.9049 836.789 64.1472 847.917 70.819C848.283 71.0623 848.542 71.4356 848.642 71.8631C848.742 72.2905 848.675 72.7398 848.455 73.1196ZM851.601 66.2178C851.429 66.5147 851.183 66.7623 850.887 66.9369C850.592 67.1114 850.256 67.2071 849.913 67.2147C849.567 67.2118 849.227 67.1333 848.915 66.9847C836.559 59.8528 824.049 63.9939 823.896 64.0706C823.653 64.1546 823.396 64.1897 823.139 64.1738C822.883 64.1579 822.632 64.0913 822.402 63.9778C822.171 63.8644 821.966 63.7063 821.797 63.5129C821.628 63.3194 821.499 63.0944 821.418 62.8509C821.337 62.6073 821.305 62.3501 821.323 62.0941C821.342 61.838 821.412 61.5883 821.528 61.3594C821.645 61.1305 821.805 60.9268 822.001 60.7604C822.196 60.5939 822.423 60.4679 822.668 60.3896C827.339 59.011 832.24 58.5857 837.078 59.139C841.917 59.6923 846.595 61.213 850.834 63.6104C851.278 63.858 851.607 64.2698 851.751 64.7574C851.894 65.245 851.84 65.7693 851.601 66.2178ZM852.983 59.4693C852.601 59.486 852.224 59.3784 851.908 59.1626C837.633 51.6472 822.975 56.1718 822.821 56.1718C822.522 56.2757 822.205 56.3188 821.888 56.2986C821.572 56.2783 821.263 56.195 820.979 56.0537C820.695 55.9124 820.443 55.7159 820.236 55.4756C820.03 55.2354 819.873 54.9564 819.776 54.6549C819.679 54.3533 819.643 54.0355 819.67 53.7199C819.698 53.4044 819.788 53.0975 819.936 52.8173C820.084 52.5371 820.286 52.2893 820.531 52.0883C820.776 51.8874 821.059 51.7374 821.363 51.6472C822.054 51.4172 838.094 46.5092 854.134 54.9448C854.69 55.2428 855.107 55.7479 855.294 56.3507C855.481 56.9535 855.422 57.6055 855.131 58.1656C854.924 58.5562 854.615 58.8836 854.237 59.1131C853.858 59.3425 853.425 59.4656 852.983 59.4693Z" fill="black"/>
</g>
<rect width="256" height="120" transform="translate(1024)" fill="white"/>
<g clip-path="url(#clip4_309_12676)">
<path d="M1062 41H1081.03V60.0264H1062V41Z" fill="black"/>
<path d="M1082.97 41H1102V60.0264H1082.97V41H1082.97Z" fill="black"/>
<path d="M1233.57 48.2494C1235.33 47.1067 1237.59 47.0016 1239.57 47.5455C1239.59 48.7203 1239.57 49.8961 1239.58 51.072C1238.64 50.6583 1237.54 50.3863 1236.55 50.7943C1236.17 50.9692 1235.85 51.2378 1235.61 51.5741C1235.37 51.9104 1235.22 52.3031 1235.18 52.7141C1235.09 53.7401 1235.06 54.7704 1235.1 55.7994H1241.12C1241.13 54.4967 1241.1 53.1929 1241.14 51.8902C1242.5 51.5016 1243.85 51.0663 1245.21 50.6572C1245.22 52.3713 1245.19 54.0911 1245.22 55.8086C1246.58 55.7892 1247.94 55.8086 1249.29 55.7994V59.1408C1247.93 59.0848 1246.57 59.1259 1245.21 59.1213V64.8853C1245.23 65.9491 1245.15 67.0187 1245.27 68.0792C1245.35 68.7043 1245.58 69.3967 1246.16 69.7201C1247.14 70.2698 1248.39 70.0298 1249.29 69.4265V72.8009C1248.1 73.2917 1246.81 73.4877 1245.53 73.3723C1244.32 73.2832 1243.07 72.8444 1242.29 71.8867C1241.37 70.8023 1241.14 69.3339 1241.12 67.9603C1241.11 65.0121 1241.12 62.0639 1241.12 59.1145H1235.1V72.9952H1230.99V59.1191C1230.03 59.1008 1229.08 59.1191 1228.12 59.1042C1228.12 58.006 1228.13 56.9067 1228.12 55.8074C1229.07 55.7857 1230.02 55.7949 1230.98 55.8074C1231.05 54.347 1230.83 52.8443 1231.26 51.4216C1231.63 50.1206 1232.45 48.9943 1233.57 48.2494Z" fill="black"/>
<path d="M1113.94 48.9991H1119.92C1121.78 53.7285 1123.65 58.4567 1125.52 63.1838C1126 64.3665 1126.44 65.563 1126.94 66.7365C1129.34 60.8264 1131.77 54.931 1134.15 49.0128C1136.07 48.982 1137.99 49.006 1139.91 49.0014C1139.9 57.0005 1139.9 64.9996 1139.91 72.9987C1138.52 72.9987 1137.14 73.0101 1135.75 72.9907C1135.77 67.0885 1135.75 61.1863 1135.76 55.2784C1135.76 55.0133 1135.75 54.7482 1135.73 54.4785C1135.65 54.6013 1135.58 54.7296 1135.52 54.8625C1133.14 60.9041 1130.72 66.9285 1128.35 72.9758C1127.37 73.0113 1126.38 72.9758 1125.4 72.9941C1122.94 66.9525 1120.52 60.8972 1118.08 54.851C1118.02 54.7253 1117.95 54.6031 1117.87 54.4854C1117.82 57.0714 1117.87 59.6596 1117.85 62.2456V72.9872H1113.94V48.99L1113.94 48.9991Z" fill="black"/>
<path d="M1156.8 55.7812C1158.8 55.2238 1160.91 55.2302 1162.91 55.7995C1163.32 55.9112 1163.71 56.0756 1164.08 56.2886C1164.06 57.5993 1164.08 58.9169 1164.07 60.223C1162.74 59.2094 1161.06 58.5672 1159.37 58.7797C1158.7 58.8406 1158.05 59.0409 1157.46 59.3677C1156.88 59.6946 1156.36 60.1408 1155.96 60.6778C1154.93 62.0194 1154.69 63.8009 1154.87 65.4418C1154.9 66.114 1155.07 66.7718 1155.37 67.3735C1155.68 67.9751 1156.1 68.5074 1156.62 68.9365C1157.14 69.3656 1157.74 69.682 1158.39 69.8657C1159.03 70.0494 1159.71 70.0964 1160.38 70.0036C1161.72 69.8323 1163 69.3092 1164.07 68.4872C1164.08 69.7293 1164.06 70.9715 1164.08 72.2136C1162.4 73.2147 1160.38 73.4706 1158.46 73.3781C1156.46 73.2993 1154.56 72.5061 1153.09 71.1429C1151.57 69.6074 1150.68 67.5505 1150.6 65.3858C1150.5 63.1678 1150.96 60.8538 1152.23 59.0014C1153.33 57.4297 1154.95 56.2898 1156.8 55.7766V55.7812Z" fill="black"/>
<path d="M1201.75 55.5194C1203.66 55.2053 1205.63 55.4101 1207.44 56.1125V59.8949C1206.18 59.0227 1204.66 58.5757 1203.13 58.6185C1202.36 58.6482 1201.51 58.9739 1201.16 59.7053C1201.01 60.0724 1200.99 60.479 1201.1 60.8603C1201.21 61.2417 1201.44 61.576 1201.76 61.8102C1202.92 62.5906 1204.32 62.922 1205.53 63.6214C1206.48 64.1562 1207.4 64.8555 1207.89 65.8634C1208.79 67.7512 1208.41 70.2458 1206.82 71.6536C1205.29 73.0752 1203.1 73.4683 1201.09 73.3928C1199.65 73.3219 1198.23 72.9969 1196.91 72.4329C1196.91 71.1062 1196.9 69.7807 1196.91 68.4551C1198.02 69.27 1199.29 69.8211 1200.65 70.0664C1201.6 70.2689 1202.59 70.178 1203.49 69.8058C1204.32 69.3887 1204.48 68.1969 1203.98 67.4678C1203.47 66.9491 1202.86 66.5477 1202.18 66.2919C1200.96 65.7446 1199.68 65.2875 1198.62 64.4739C1197.86 63.8908 1197.32 63.0682 1197.08 62.1393C1196.75 60.768 1196.85 59.2299 1197.65 58.0346C1198.13 57.3616 1198.74 56.792 1199.45 56.3601C1200.15 55.9281 1200.93 55.6426 1201.75 55.5206L1201.75 55.5194Z" fill="black"/>
<path d="M1173.28 56.0611C1173.86 55.7378 1174.5 55.5417 1175.16 55.4861C1175.82 55.4305 1176.48 55.5167 1177.1 55.7389V59.8527C1176.28 59.3295 1175.3 59.0994 1174.32 59.199C1173.15 59.3316 1172.23 60.2275 1171.75 61.256C1171.28 62.3636 1171.08 63.5671 1171.16 64.7675V72.9952H1167.11V55.8051C1168.46 55.788 1169.81 55.7949 1171.17 55.8051C1171.16 56.789 1171.17 57.7729 1171.17 58.7579C1171.61 57.6872 1172.26 56.6473 1173.29 56.0634L1173.28 56.0611Z" fill="black"/>
<path d="M1143.76 55.8029C1145.12 55.8029 1146.49 55.7835 1147.85 55.8098C1147.84 61.5383 1147.85 67.2679 1147.85 72.9964H1143.76V55.8029L1143.76 55.8029Z" fill="black"/>
<path d="M1194.16 59.8127C1193.44 58.2071 1192.16 56.9166 1190.57 56.1799C1188.73 55.3458 1186.65 55.2338 1184.68 55.4851V55.4886C1182.57 55.7178 1180.63 56.7538 1179.27 58.3797C1178.1 59.8922 1177.44 61.7294 1177.37 63.6362C1177.2 65.8543 1177.57 68.2083 1178.87 70.0595C1180.01 71.6538 1181.71 72.7607 1183.63 73.1598C1185.22 73.4905 1186.86 73.4905 1188.45 73.1598C1190.32 72.7869 1192 71.7521 1193.17 70.2446C1194.26 68.7933 1194.89 67.0494 1194.98 65.2372C1195.16 63.3893 1194.88 61.526 1194.16 59.8127ZM1190.19 67.7066C1189.8 68.607 1189.07 69.3197 1188.16 69.6927C1187.09 70.087 1185.92 70.1385 1184.81 69.8401C1184.26 69.6861 1183.74 69.4171 1183.3 69.0505C1182.85 68.684 1182.49 68.228 1182.23 67.7123C1181.57 66.3891 1181.47 64.8555 1181.61 63.4077C1181.73 62.0878 1182.19 60.7303 1183.2 59.8195C1183.95 59.1579 1184.9 58.7799 1185.9 58.7511C1186.53 58.6912 1187.16 58.7643 1187.75 58.9656C1188.34 59.167 1188.89 59.4919 1189.35 59.919C1190.3 60.8537 1190.66 62.2044 1190.77 63.5037C1190.84 64.9195 1190.78 66.3948 1190.19 67.7066Z" fill="black"/>
<path d="M1227.12 60.3087C1226.48 58.5793 1225.22 57.1517 1223.58 56.3092C1221.71 55.3653 1219.53 55.2247 1217.47 55.4795V55.4784C1215.8 55.6645 1214.22 56.3433 1212.93 57.429C1211.41 58.7984 1210.44 60.6775 1210.21 62.7107C1209.96 64.7093 1210.04 66.8142 1210.86 68.6849C1211.66 70.5366 1213.16 71.9949 1215.04 72.7404C1216.89 73.4167 1218.89 73.5859 1220.84 73.2306C1222.83 72.9177 1224.64 71.8614 1225.89 70.2733C1227.15 68.5834 1227.81 66.5213 1227.76 64.4157C1227.81 63.0184 1227.59 61.6244 1227.12 60.3087ZM1223.4 66.1446C1223.27 67.0639 1222.9 67.9338 1222.34 68.6688C1221.72 69.378 1220.87 69.8381 1219.94 69.9624C1218.95 70.1301 1217.93 70.0193 1216.99 69.6425C1216 69.197 1215.22 68.3825 1214.82 67.3719C1214.37 66.1782 1214.2 64.8949 1214.33 63.6249C1214.38 62.38 1214.82 61.1812 1215.58 60.1967C1215.96 59.7659 1216.42 59.416 1216.94 59.1683C1217.45 58.9206 1218.01 58.7803 1218.58 58.7557V58.7546C1219.77 58.6317 1220.95 58.9811 1221.88 59.727C1222.67 60.4454 1223.2 61.4129 1223.37 62.4696C1223.6 63.6829 1223.61 64.9272 1223.4 66.1446L1223.4 66.1446Z" fill="black"/>
<path d="M1062 61.9736H1081.03V80.9989H1062V61.9736Z" fill="black"/>
<path d="M1082.97 61.9736H1102V81H1082.97V61.9748L1082.97 61.9736Z" fill="black"/>
</g>
<defs>
<filter id="filter0_d_309_12676" x="58.7708" y="39.9995" width="138.458" height="48.0223" filterUnits="userSpaceOnUse" color-interpolation-filters="sRGB">
<feFlood flood-opacity="0" result="BackgroundImageFix"/>
<feColorMatrix in="SourceAlpha" type="matrix" values="0 0 0 0 0 0 0 0 0 0 0 0 0 0 0 0 0 0 127 0" result="hardAlpha"/>
<feOffset dy="4"/>
<feGaussianBlur stdDeviation="2"/>
<feComposite in2="hardAlpha" operator="out"/>
<feColorMatrix type="matrix" values="0 0 0 0 0 0 0 0 0 0 0 0 0 0 0 0 0 0 0.25 0"/>
<feBlend mode="normal" in2="BackgroundImageFix" result="effect1_dropShadow_309_12676"/>
<feBlend mode="normal" in="SourceGraphic" in2="effect1_dropShadow_309_12676" result="shape"/>
</filter>
<clipPath id="clip0_309_12676">
<rect width="130.458" height="40" fill="white" transform="translate(62.7708 40)"/>
</clipPath>
<clipPath id="clip1_309_12676">
<rect width="160" height="45.2403" fill="white" transform="translate(304 37.3799)"/>
</clipPath>
<clipPath id="clip2_309_12676">
<rect width="181.771" height="50" fill="white" transform="translate(545 30)"/>
</clipPath>
<clipPath id="clip3_309_12676">
<rect width="167" height="50" fill="white" transform="translate(812 37)"/>
</clipPath>
<clipPath id="clip4_309_12676">
<rect width="187.294" height="40" fill="white" transform="translate(1062 41)"/>
</clipPath>
</defs>
</svg>
