<svg width="1280" height="120" viewBox="0 0 1280 120" fill="none" xmlns="http://www.w3.org/2000/svg">
<rect width="256" height="120" fill="white"/>
<path fill-rule="evenodd" clip-rule="evenodd" d="M150.097 35.3963L123.912 48.9748L119.418 46.2052L138.397 36.416C133.89 34.5276 126.893 34.6787 126.893 34.6787C105.593 35.6858 106.101 46.2077 106.101 46.2077C106.101 48.6928 108.475 56.561 126.893 57.485C149.209 56.7775 150.243 45.4474 147.287 42.1113L154.232 38.4328C156.457 40.4322 157.812 43.2225 158.008 46.2078C158.081 51.7923 150.684 61.4355 126.901 62.1606C103.153 60.7833 96.7903 51.8653 96.7172 46.2078C96.6442 40.6081 103.515 30.7811 126.901 30.0031C142.629 29.8495 150.097 35.3963 150.097 35.3963Z" fill="black"/>
<path fill-rule="evenodd" clip-rule="evenodd" d="M188.705 88.9652C188.698 89.0748 188.67 89.1819 188.621 89.2804C188.573 89.3789 188.506 89.4669 188.423 89.5394C188.341 89.6119 188.245 89.6674 188.141 89.7028C188.037 89.7382 187.927 89.7529 187.818 89.7458L187.817 89.7458H182.22C182.147 89.7486 182.074 89.7426 182.003 89.7281C181.88 89.6927 181.762 89.6384 181.656 89.567C181.603 89.5292 172.138 80.0497 172.138 80.0497V88.9677C172.125 89.1859 172.027 89.3902 171.864 89.5363C171.702 89.6824 171.488 89.7586 171.27 89.7483H165.652C165.434 89.7593 165.219 89.6834 165.056 89.5373C164.893 89.3911 164.794 89.1864 164.781 88.9677V72.1236C164.787 72.016 164.813 71.9104 164.859 71.813C164.906 71.7156 164.971 71.6283 165.05 71.556C165.13 71.4837 165.224 71.4279 165.325 71.3917C165.427 71.3555 165.535 71.3396 165.642 71.345L165.652 71.3456H171.272C171.38 71.3322 171.49 71.3431 171.593 71.3775C171.696 71.4119 171.791 71.469 171.869 71.5445L181.351 81.0266V72.1236C181.361 71.9068 181.457 71.703 181.618 71.557C181.778 71.4109 181.99 71.3347 182.207 71.3449L182.22 71.3456H187.839C187.947 71.3389 188.055 71.3534 188.157 71.3883C188.259 71.4232 188.353 71.4779 188.434 71.5492C188.514 71.6205 188.58 71.707 188.628 71.8038C188.675 71.9006 188.703 72.0058 188.71 72.1134L188.71 72.1236V88.9652H188.705ZM150.334 75.4068V78.3073C150.336 78.3612 150.348 78.4143 150.37 78.4634C150.392 78.5126 150.423 78.5569 150.463 78.5939C150.502 78.6309 150.548 78.6598 150.598 78.679C150.649 78.6981 150.702 78.7072 150.756 78.7056L150.767 78.7052H158.653C158.87 78.6916 159.084 78.7648 159.247 78.9088C159.41 79.0529 159.51 79.2558 159.523 79.4731L159.524 79.4857V81.6057C159.519 81.7134 159.493 81.819 159.447 81.9165C159.401 82.014 159.336 82.1016 159.257 82.1741C159.177 82.2466 159.084 82.3028 158.982 82.3393C158.881 82.3758 158.773 82.392 158.665 82.3869L158.653 82.3862H150.767C150.713 82.3832 150.659 82.3908 150.609 82.4087C150.558 82.4265 150.511 82.4541 150.471 82.4901C150.43 82.526 150.398 82.5695 150.374 82.6181C150.351 82.6666 150.337 82.7193 150.334 82.7731L150.334 82.784V85.6845C150.341 85.7923 150.391 85.8929 150.472 85.9642C150.553 86.0355 150.659 86.0716 150.767 86.0647H160.506C160.615 86.06 160.725 86.0769 160.827 86.1143C160.93 86.1518 161.025 86.2092 161.105 86.2832C161.186 86.3571 161.251 86.4463 161.297 86.5455C161.344 86.6447 161.37 86.752 161.375 86.8614L161.375 86.8629V88.9653C161.36 89.1862 161.259 89.3925 161.093 89.5388C160.927 89.6851 160.709 89.7596 160.488 89.7458H143.846C143.738 89.7522 143.63 89.7373 143.527 89.7019C143.425 89.6665 143.331 89.6114 143.25 89.5396C143.169 89.4678 143.103 89.3808 143.056 89.2836C143.009 89.1863 142.981 89.0807 142.975 88.9728L142.974 88.9653V72.1236C142.98 72.016 143.006 71.9104 143.053 71.813C143.099 71.7156 143.164 71.6283 143.244 71.556C143.324 71.4837 143.417 71.4279 143.519 71.3917C143.62 71.3555 143.728 71.3396 143.835 71.345L143.846 71.3456H160.506C160.723 71.332 160.936 71.405 161.098 71.5486C161.261 71.6921 161.36 71.8944 161.374 72.111L161.375 72.1236V74.2084C161.366 74.4312 161.27 74.6417 161.108 74.7944C160.945 74.9471 160.729 75.0296 160.506 75.0241H150.767C150.662 75.0147 150.557 75.0474 150.477 75.1151C150.396 75.1827 150.345 75.2798 150.335 75.3849C150.335 75.3922 150.334 75.3995 150.334 75.4068L150.334 75.4068ZM131.954 76.2578C131.954 75.86 131.591 75.4773 130.758 75.1878C129.654 74.8822 128.511 74.7422 127.367 74.7723C126.223 74.7486 125.082 74.8885 123.978 75.1878C123.179 75.4597 122.782 75.86 122.782 76.2578V84.8335C122.782 85.2313 123.144 85.6115 123.978 85.9011C125.08 86.2074 126.222 86.3483 127.367 86.319C128.511 86.3406 129.653 86.1999 130.758 85.9011C131.574 85.6291 131.954 85.2313 131.954 84.8335V83.0559C131.946 82.9384 131.892 82.8286 131.804 82.7504C131.716 82.6721 131.601 82.6318 131.483 82.638H128.326C128.084 82.647 127.848 82.5613 127.669 82.3991C127.489 82.2368 127.38 82.0109 127.364 81.7693V79.8105C127.375 79.5705 127.481 79.3446 127.657 79.1819C127.834 79.0192 128.068 78.933 128.308 78.9418H138.379C138.619 78.9336 138.852 79.0202 139.029 79.1828C139.205 79.3454 139.31 79.5709 139.321 79.8105V85.4126C139.321 88.6203 132.868 90.0001 127.374 90.0001C121.88 90.0001 115.41 88.6203 115.41 85.4126V75.6788C115.41 72.4686 121.863 71.0913 127.374 71.0913C132.886 71.0913 139.321 72.4685 139.321 75.6788V76.2578C139.309 76.4953 139.204 76.7183 139.028 76.878C138.852 77.0376 138.619 77.1207 138.382 77.109L138.379 77.1089H132.893C132.777 77.1188 132.661 77.1054 132.55 77.0695C132.44 77.0336 132.338 76.9759 132.25 76.8998C132.162 76.8238 132.091 76.7309 132.039 76.6267C131.988 76.5225 131.958 76.4091 131.951 76.2931V76.2578L131.954 76.2578ZM111.759 88.9652C111.752 89.0748 111.723 89.1819 111.675 89.2804C111.626 89.3789 111.559 89.4669 111.476 89.5394C111.394 89.6119 111.298 89.6674 111.194 89.7028C111.09 89.7382 110.98 89.7529 110.871 89.7458L110.87 89.7458H105.265C105.193 89.7486 105.12 89.7426 105.049 89.7281C104.925 89.6953 104.808 89.6398 104.704 89.5645C104.631 89.5267 95.1864 80.0471 95.1864 80.0471V88.9652C95.1794 89.0748 95.1509 89.1819 95.1024 89.2804C95.054 89.3789 94.9866 89.4669 94.9042 89.5394C94.8218 89.6119 94.7259 89.6674 94.622 89.7028C94.5181 89.7382 94.4082 89.7529 94.2986 89.7458L94.2977 89.7457H88.698C88.4768 89.7602 88.2589 89.6862 88.0922 89.54C87.9256 89.3939 87.8238 89.1874 87.8093 88.9662L87.8093 88.9652V72.1236C87.8241 71.9026 87.9261 71.6966 88.0927 71.5507C88.2593 71.4049 88.4771 71.3311 88.698 71.3456H94.2876C94.3986 71.3336 94.5109 71.3451 94.6172 71.3794C94.7235 71.4137 94.8214 71.4699 94.9045 71.5445L104.369 81.0266V72.1236C104.384 71.9031 104.485 71.6975 104.651 71.5517C104.818 71.4059 105.035 71.3318 105.255 71.3456H110.857C111.078 71.3311 111.296 71.4049 111.463 71.5507C111.629 71.6966 111.731 71.9026 111.746 72.1236V88.9652H111.759ZM73.3621 75.4068V78.3073C73.3692 78.4171 73.4186 78.5198 73.4998 78.594C73.581 78.6681 73.6877 78.708 73.7977 78.7052H81.6985C81.9158 78.6916 82.1296 78.7648 82.2928 78.9089C82.4561 79.0529 82.5554 79.2558 82.569 79.4731L82.5697 79.4857V81.6057C82.5555 81.8269 82.454 82.0335 82.2875 82.1798C82.121 82.3262 81.9032 82.4005 81.6819 82.3863L81.6809 82.3862H73.7951C73.6852 82.3834 73.5784 82.4232 73.4972 82.4974C73.416 82.5715 73.3667 82.6743 73.3596 82.784V85.6845C73.3704 85.7913 73.4214 85.8901 73.5023 85.9607C73.5831 86.0313 73.6878 86.0685 73.7951 86.0647H83.5315C83.7544 86.0551 83.9721 86.1333 84.1379 86.2826C84.3036 86.4318 84.4041 86.6402 84.4178 86.8629V88.9652C84.4035 89.1862 84.3022 89.3925 84.1361 89.5388C83.9699 89.6851 83.7525 89.7596 83.5315 89.7458H66.8888C66.6676 89.7596 66.4498 89.6852 66.2833 89.5389C66.1167 89.3927 66.0149 89.1864 66 88.9652V72.1236C66.0143 71.9056 66.1136 71.702 66.2765 71.5565C66.4394 71.411 66.653 71.3352 66.8712 71.3456H83.5315C83.7521 71.3318 83.9691 71.4059 84.1352 71.5517C84.3013 71.6975 84.4029 71.9031 84.4178 72.1236V74.2084C84.4054 74.433 84.3059 74.6439 84.1403 74.7963C83.9748 74.9486 83.7564 75.0304 83.5315 75.0241H73.7951C73.6867 75.0172 73.5799 75.0536 73.4982 75.1254C73.4165 75.1971 73.3667 75.2984 73.3596 75.4068H73.3621Z" fill="black"/>
<rect width="256" height="120" transform="translate(256)" fill="white"/>
<g clip-path="url(#clip0_309_12677)">
<path d="M346.519 80C343.495 79.9692 340.56 78.9676 338.148 77.1429C337.532 76.6079 336.95 76.0354 336.405 75.4286C335.581 74.4365 334.942 73.3042 334.519 72.0857C333.428 67.5227 334.07 62.7172 336.319 58.6C339.142 53.0595 342.793 47.9821 347.148 43.5429C347.976 42.6571 350.405 40 350.433 40C350.358 40.1818 350.262 40.3544 350.148 40.5143C348.689 42.8857 347.556 45.4418 346.776 48.1143C345.667 51.3217 345.799 54.8284 347.148 57.9429C348.104 59.7483 349.603 61.2075 351.433 62.1143C355.684 63.677 360.33 63.8075 364.662 62.4857L406.805 51.4286L448.262 40.6857L367.805 74.4857C363.433 76.3143 362.29 76.7714 360.233 77.3429C355.861 79.0522 351.214 79.9526 346.519 80Z" fill="black"/>
</g>
<rect width="256" height="120" transform="translate(512)" fill="white"/>
<g clip-path="url(#clip1_309_12677)">
<path d="M613.2 36.9411C613.2 36.0836 613.541 35.2612 614.147 34.6549C614.754 34.0485 615.576 33.7079 616.434 33.7079C617.291 33.7079 618.114 34.0485 618.72 34.6549C619.326 35.2612 619.667 36.0836 619.667 36.9411V40.9225H613.2V36.9411ZM608.531 36.9138V49.5954C608.531 51.6957 609.365 53.7099 610.85 55.1951C612.335 56.6802 614.35 57.5145 616.45 57.5145C618.55 57.5145 620.565 56.6802 622.05 55.1951C623.535 53.7099 624.369 51.6957 624.369 49.5954H619.678C619.678 50.4529 619.337 51.2752 618.731 51.8816C618.124 52.4879 617.302 52.8286 616.445 52.8286C615.587 52.8286 614.765 52.4879 614.158 51.8816C613.552 51.2752 613.211 50.4529 613.211 49.5954V45.5921H624.353V36.9138C624.353 34.8178 623.52 32.8077 622.038 31.3257C620.556 29.8436 618.546 29.011 616.45 29.011C614.354 29.011 612.344 29.8436 610.862 31.3257C609.38 32.8077 608.547 34.8178 608.547 36.9138" fill="black"/>
<path d="M619.683 36.9411V40.9225H613.2V36.9411C613.2 36.0836 613.541 35.2612 614.147 34.6549C614.754 34.0485 615.576 33.7079 616.434 33.7079C617.291 33.7079 618.114 34.0485 618.72 34.6549C619.326 35.2612 619.667 36.0836 619.667 36.9411H619.683ZM619.683 45.5866H624.353V36.9138C624.353 34.8178 623.52 32.8077 622.038 31.3257C620.556 29.8436 618.546 29.011 616.45 29.011C614.354 29.011 612.344 29.8436 610.862 31.3257C609.38 32.8077 608.547 34.8178 608.547 36.9138V49.5954C608.547 51.6957 609.382 53.7099 610.867 55.1951C612.352 56.6802 614.366 57.5145 616.466 57.5145C618.567 57.5145 620.581 56.6802 622.066 55.1951C623.551 53.7099 624.386 51.6957 624.386 49.5954H619.678C619.678 50.4529 619.337 51.2752 618.731 51.8816C618.124 52.4879 617.302 52.8286 616.445 52.8286C615.587 52.8286 614.765 52.4879 614.158 51.8816C613.552 51.2752 613.211 50.4529 613.211 49.5954V45.5866H619.683Z" fill="black"/>
<path d="M693.867 36.9411C693.849 36.5167 693.915 36.093 694.061 35.6942C694.207 35.2954 694.431 34.9293 694.718 34.6168C695.006 34.3043 695.352 34.0516 695.738 33.873C696.123 33.6944 696.54 33.5935 696.964 33.5761C697.389 33.5586 697.812 33.625 698.211 33.7713C698.61 33.9176 698.976 34.1411 699.288 34.4289C699.6 34.7167 699.853 35.0633 700.031 35.4487C700.21 35.8342 700.31 36.251 700.328 36.6754C700.331 36.7639 700.331 36.8525 700.328 36.9411V49.5954C700.345 50.0197 700.279 50.4434 700.133 50.8422C699.987 51.241 699.764 51.6071 699.476 51.9196C699.188 52.2321 698.842 52.4849 698.457 52.6634C698.071 52.842 697.654 52.9429 697.23 52.9604C696.806 52.9778 696.382 52.9115 695.983 52.7651C695.585 52.6188 695.219 52.3954 694.906 52.1075C694.594 51.8197 694.341 51.4732 694.163 51.0877C693.985 50.7023 693.884 50.2854 693.867 49.8611C693.863 49.7725 693.863 49.684 693.867 49.5954V36.9411ZM689.197 36.9138V49.5954C689.251 51.6561 690.108 53.6142 691.585 55.0525C693.061 56.4909 695.041 57.2958 697.103 57.2958C699.164 57.2958 701.144 56.4909 702.621 55.0525C704.097 53.6142 704.954 51.6561 705.008 49.5954V36.9138C705.008 35.876 704.804 34.8483 704.407 33.8895C704.009 32.9307 703.427 32.0595 702.694 31.3257C701.96 30.5918 701.088 30.0097 700.13 29.6126C699.171 29.2154 698.143 29.011 697.105 29.011C696.068 29.011 695.04 29.2154 694.081 29.6126C693.122 30.0097 692.251 30.5918 691.517 31.3257C690.783 32.0595 690.201 32.9307 689.804 33.8895C689.407 34.8483 689.203 35.876 689.203 36.9138" fill="black"/>
<path d="M673.714 40.906V33.7187H676.952C677.81 33.7187 678.632 34.0593 679.239 34.6657C679.845 35.272 680.186 36.0944 680.186 36.9519V37.6837C680.186 38.5412 679.845 39.3636 679.239 39.9699C678.632 40.5763 677.81 40.9169 676.952 40.9169H673.714V40.906ZM673.714 29.0546H669.044V57.498H673.714V45.581H674.615C675.472 45.581 676.295 45.9217 676.901 46.528C677.507 47.1344 677.848 47.9568 677.848 48.8143V48.8252V49.5952C677.848 51.6912 678.681 53.7013 680.163 55.1834C681.645 56.6654 683.655 57.498 685.751 57.498V52.8285C684.893 52.8285 684.071 52.4878 683.465 51.8815C682.858 51.2751 682.518 50.4527 682.518 49.5952V48.8252C682.52 47.2364 682.04 45.6844 681.141 44.3741C682.256 43.6765 683.178 42.7116 683.825 41.5671C684.471 40.4226 684.822 39.1346 684.844 37.8203V36.728C684.79 34.6701 683.935 32.7145 682.461 31.2773C680.988 29.8402 679.011 29.0349 676.952 29.0327H673.714" fill="black"/>
<path d="M599.192 29.0327V49.5952C599.192 51.3812 598.334 52.8285 596.723 52.8285C595.112 52.8285 594.26 51.3812 594.26 49.5952V29.0327H589.596V49.5952C589.596 51.3812 588.738 52.8285 587.127 52.8285C585.516 52.8285 584.664 51.3812 584.664 49.5952V29.0327H580V49.5952C580 53.9644 583.19 57.498 587.1 57.498C587.998 57.4911 588.885 57.3043 589.71 56.9488C590.534 56.5933 591.279 56.0762 591.901 55.4281C592.521 56.0756 593.265 56.5923 594.089 56.9478C594.913 57.3032 595.799 57.4903 596.696 57.498C600.634 57.498 603.829 53.959 603.829 49.5952V29.0327H599.192Z" fill="black"/>
<path d="M628.547 36.9411C628.549 38.9661 629.332 40.9124 630.732 42.3753L638.957 47.5255C639.288 47.9236 639.519 48.3955 639.63 48.9015C639.741 49.4075 639.729 49.9327 639.594 50.433C639.46 50.9332 639.207 51.3939 638.857 51.7761C638.508 52.1583 638.071 52.4509 637.585 52.6292C637.099 52.8076 636.577 52.8665 636.063 52.801C635.549 52.7355 635.058 52.5475 634.632 52.2528C634.206 51.9581 633.857 51.5654 633.615 51.1076C633.372 50.6499 633.243 50.1406 633.239 49.6227V47.6347H628.547V49.6227C628.554 50.9106 628.875 52.1774 629.484 53.3128C630.092 54.4482 630.968 55.4177 632.037 56.137C633.105 56.8563 634.333 57.3036 635.614 57.4399C636.894 57.5761 638.189 57.3973 639.385 56.919C640.581 56.4406 641.642 55.6773 642.475 54.6953C643.309 53.7133 643.889 52.5425 644.167 51.2848C644.445 50.0271 644.411 48.7206 644.068 47.479C643.725 46.2375 643.084 45.0985 642.201 44.1612C642.201 44.1612 634.555 39.7264 634.009 39.011C633.677 38.612 633.445 38.1388 633.335 37.6316C633.224 37.1243 633.237 36.5979 633.373 36.0968C633.509 35.5957 633.763 35.1347 634.115 34.7527C634.467 34.3708 634.905 34.0791 635.393 33.9024C635.881 33.7257 636.405 33.6691 636.92 33.7375C637.434 33.8059 637.925 33.9972 638.35 34.2953C638.775 34.5933 639.122 34.9894 639.362 35.4499C639.601 35.9104 639.727 36.4219 639.727 36.9411V38.9291H644.331V36.8919C644.328 35.8541 644.12 34.827 643.72 33.8694C643.32 32.9117 642.735 32.0423 641.999 31.3107C641.263 30.5791 640.39 29.9996 639.43 29.6054C638.47 29.2112 637.441 29.01 636.404 29.0132C635.366 29.0164 634.339 29.2241 633.381 29.6242C632.424 30.0244 631.554 30.6093 630.823 31.3454C630.091 32.0816 629.512 32.9547 629.117 33.9148C628.723 34.8749 628.522 35.9032 628.525 36.9411" fill="black"/>
<path d="M639.683 38.9236H644.331V36.8919C644.32 35.6051 643.994 34.3406 643.383 33.2081C642.772 32.0756 641.894 31.1095 640.825 30.3936C639.755 29.6778 638.528 29.2338 637.248 29.1004C635.968 28.967 634.675 29.1482 633.481 29.6282C632.287 30.1081 631.228 30.8724 630.397 31.8545C629.565 32.8367 628.986 34.007 628.71 35.2638C628.434 36.5206 628.468 37.8258 628.811 39.0661C629.154 40.3064 629.795 41.4442 630.677 42.3807L638.902 47.5309C639.234 47.9292 639.465 48.4014 639.575 48.9076C639.686 49.4139 639.674 49.9394 639.539 50.4398C639.404 50.9402 639.151 51.4009 638.801 51.7831C638.451 52.1652 638.015 52.4576 637.528 52.6357C637.041 52.8137 636.519 52.8721 636.005 52.8061C635.491 52.74 635 52.5513 634.574 52.2559C634.149 51.9606 633.8 51.5672 633.558 51.1089C633.316 50.6506 633.188 50.1409 633.184 49.6227V47.6347H628.547V49.6227C628.554 50.9106 628.875 52.1774 629.483 53.3128C630.092 54.4482 630.968 55.4177 632.036 56.137C633.105 56.8563 634.333 57.3036 635.614 57.4398C636.894 57.5761 638.189 57.3973 639.385 56.919C640.581 56.4406 641.642 55.6772 642.475 54.6953C643.308 53.7133 643.889 52.5425 644.167 51.2848C644.445 50.0271 644.411 48.7206 644.068 47.479C643.725 46.2375 643.084 45.0985 642.201 44.1612C642.201 44.1612 634.555 39.7264 634.009 39.011C633.677 38.6119 633.445 38.1388 633.335 37.6316C633.224 37.1243 633.237 36.5979 633.373 36.0968C633.509 35.5957 633.763 35.1347 634.115 34.7527C634.467 34.3707 634.905 34.0791 635.393 33.9024C635.881 33.7257 636.405 33.6691 636.92 33.7375C637.434 33.8059 637.925 33.9972 638.35 34.2952C638.775 34.5933 639.122 34.9893 639.362 35.4499C639.601 35.9104 639.727 36.4219 639.727 36.9411L639.683 38.9236Z" fill="black"/>
<path d="M648.351 36.9192V49.5953C648.351 50.6331 648.555 51.6608 648.952 52.6196C649.349 53.5784 649.931 54.4496 650.665 55.1834C651.399 55.9173 652.27 56.4994 653.229 56.8965C654.188 57.2937 655.216 57.4981 656.253 57.4981C657.291 57.4981 658.319 57.2937 659.278 56.8965C660.236 56.4994 661.108 55.9173 661.841 55.1834C662.575 54.4496 663.157 53.5784 663.555 52.6196C663.952 51.6608 664.156 50.6331 664.156 49.5953V43.2545H656.658V47.9241H659.492V49.5953C659.493 50.4528 659.153 51.2755 658.547 51.8823C657.941 52.4891 657.119 52.8305 656.261 52.8312C655.404 52.8319 654.581 52.4919 653.974 51.8861C653.368 51.2802 653.026 50.4581 653.026 49.6006V49.5953V36.941C653.025 36.5164 653.109 36.0959 653.271 35.7035C653.433 35.3111 653.671 34.9545 653.971 34.654C654.271 34.3535 654.627 34.1151 655.019 33.9523C655.411 33.7895 655.832 33.7055 656.256 33.7052C656.681 33.7048 657.101 33.7881 657.494 33.9503C657.886 34.1124 658.243 34.3503 658.543 34.6503C658.844 34.9502 659.082 35.3065 659.245 35.6986C659.408 36.0908 659.492 36.5111 659.492 36.9357V36.941V38.9126H664.162V36.9028C664.162 34.8068 663.329 32.7967 661.847 31.3147C660.365 29.8326 658.355 29 656.259 29C654.163 29 652.153 29.8326 650.671 31.3147C649.189 32.7967 648.356 34.8068 648.356 36.9028" fill="black"/>
<path d="M634.626 70.7859C635.232 70.3817 635.866 69.77 635.866 68.9945C635.858 68.614 635.699 68.2523 635.425 67.9886C635.15 67.7249 634.782 67.5809 634.402 67.5882C634.022 67.5954 633.659 67.7533 633.395 68.0272C633.131 68.3011 632.986 68.6686 632.993 69.0491C633.016 69.6595 633.259 70.241 633.676 70.6876C632.813 71.2337 632.201 71.7799 632.201 72.8722C632.179 73.154 632.219 73.4371 632.318 73.702C632.416 73.967 632.571 74.2074 632.772 74.4067C632.972 74.6061 633.213 74.7596 633.479 74.8567C633.744 74.9539 634.027 74.9923 634.309 74.9694C634.637 74.9771 634.962 74.9068 635.257 74.7644C635.552 74.622 635.81 74.4114 636.008 74.1501L636.461 74.811H637.428L636.477 73.4784C636.798 72.8633 636.975 72.1837 636.996 71.4904H636.286C636.256 71.949 636.162 72.4012 636.008 72.8339L634.626 70.7859ZM634.282 70.2397C633.976 69.8692 633.787 69.4173 633.736 68.9399C633.726 68.8436 633.737 68.7463 633.768 68.6545C633.798 68.5628 633.848 68.4786 633.914 68.4076C633.98 68.3366 634.06 68.2804 634.149 68.2428C634.238 68.2051 634.335 68.1868 634.431 68.1892C634.528 68.1915 634.623 68.2144 634.711 68.2563C634.798 68.2983 634.875 68.3583 634.937 68.4324C635 68.5064 635.046 68.5929 635.072 68.6861C635.098 68.7792 635.104 68.8769 635.09 68.9726C635.072 69.2332 634.99 69.4853 634.851 69.7063C634.711 69.9274 634.52 70.1106 634.293 70.2397H634.282ZM635.598 73.5166C635.461 73.7093 635.284 73.8694 635.078 73.9855C634.872 74.1016 634.643 74.1709 634.407 74.1884C634.227 74.2024 634.045 74.178 633.874 74.1167C633.703 74.0553 633.548 73.9585 633.417 73.8326C633.286 73.7067 633.184 73.5545 633.117 73.3861C633.049 73.2178 633.018 73.037 633.026 72.8558C633.03 72.5188 633.125 72.1893 633.3 71.9012C633.474 71.6131 633.723 71.377 634.02 71.2173L635.598 73.5166Z" fill="black"/>
<path d="M703.25 72.5773C703.31 73.3583 703.053 74.2158 702.114 74.2158C700.737 74.2158 700.901 72.4353 700.874 71.485H704.216C704.167 69.8793 704.287 67.7767 702.064 67.7767C700.246 67.7767 699.88 69.9613 699.88 71.3867C699.88 74.1611 700.808 75.0241 702.108 75.0241C703.555 75.0241 704.249 73.899 704.189 72.55L703.25 72.5773ZM700.874 70.7095C700.912 69.8957 700.934 68.6341 702.075 68.6341C703.217 68.6341 703.168 69.9066 703.2 70.7095H700.874ZM694.762 74.1502C694.894 74.422 695.101 74.6504 695.358 74.8082C695.616 74.966 695.913 75.0466 696.215 75.0405C698.067 75.0405 698.4 72.9159 698.4 70.9607C698.4 69.5516 697.892 67.793 696.15 67.793C695.847 67.8045 695.554 67.8993 695.303 68.067C695.051 68.2348 694.851 68.4688 694.724 68.7433V67.9787H693.779V77.1814H694.757L694.762 74.1502ZM697.411 71.3048C697.411 73.1617 697.089 74.2212 696.073 74.2212C694.73 74.2212 694.762 72.3698 694.762 71.414C694.762 70.4583 694.762 68.6341 696.062 68.6341C697.362 68.6341 697.411 70.4036 697.411 71.3048ZM692.316 74.1502C692.176 74.172 692.034 74.172 691.895 74.1502C691.698 74.0465 691.72 73.8007 691.72 73.6041V69.6718C691.72 69.5134 691.895 67.804 689.852 67.804C688.471 67.804 687.766 68.4211 687.815 69.8466H688.689C688.689 69.0383 688.804 68.6341 689.694 68.6341C690.486 68.6341 690.786 68.929 690.786 69.7264C690.786 70.0814 690.786 70.3545 690.601 70.5183C690.481 70.6166 689.093 71.1355 688.536 71.3812C688.226 71.532 687.966 71.7709 687.79 72.0681C687.615 72.3653 687.53 72.7076 687.548 73.0525C687.548 74.3031 687.941 75.0678 689.317 75.0678C689.648 75.0489 689.966 74.9361 690.235 74.7426C690.504 74.5492 690.713 74.283 690.836 73.9755H690.863C690.961 74.9148 691.272 74.9913 692.097 74.9531C692.171 74.9315 692.245 74.915 692.321 74.9039L692.316 74.1502ZM690.71 72.8231C690.748 73.1541 690.653 73.4866 690.446 73.7475C690.239 74.0084 689.936 74.1763 689.605 74.2143C689.577 74.2176 689.548 74.2199 689.519 74.2212C688.727 74.2212 688.558 73.7788 688.558 73.0852C688.533 72.8508 688.577 72.6142 688.684 72.404C688.79 72.1937 688.955 72.0188 689.159 71.9001C689.705 71.6489 690.224 71.4413 690.71 71.1573V72.8231ZM684.325 68.6341C685.254 68.6341 685.451 69.3987 685.461 70.1524H686.384C686.384 68.8799 685.729 67.804 684.342 67.804C682.239 67.804 681.966 69.8302 681.966 71.5123C681.966 73.2982 682.266 75.0514 684.369 75.0514C685.904 75.0514 686.395 73.7898 686.434 72.4681H685.505C685.456 73.3092 685.358 74.2212 684.293 74.2212C683.042 74.2212 682.982 72.6265 682.982 71.7253C682.982 70.8242 682.911 68.6341 684.331 68.6341H684.325ZM674.992 67.9897H674.041V74.8657H675.019V70.2671C674.993 70.0412 675.02 69.8125 675.097 69.5985C675.173 69.3845 675.298 69.191 675.461 69.0328C675.723 68.7868 676.069 68.6501 676.428 68.6505C677.22 68.6505 677.455 69.1311 677.455 69.8466V74.8821H678.433V69.579C678.433 68.3665 677.761 67.8204 676.734 67.8204C676.393 67.8244 676.058 67.9123 675.759 68.0761C675.46 68.2399 675.206 68.4746 675.019 68.7597H674.992V67.9897ZM670.715 67.9897H669.771V74.8657H670.748V70.6986C670.748 69.4479 671.491 68.656 672.753 68.8799V67.9405C672.328 67.866 671.892 67.9464 671.522 68.1669C671.152 68.3875 670.873 68.7335 670.737 69.142L670.715 67.9897ZM666.952 72.5773C667.013 73.3583 666.756 74.2158 665.816 74.2158C664.44 74.2158 664.604 72.4353 664.577 71.485H667.919C667.87 69.8793 667.99 67.7767 665.767 67.7767C663.949 67.7767 663.583 69.9613 663.583 71.3867C663.583 74.1611 664.506 75.0241 665.806 75.0241C667.253 75.0241 667.946 73.899 667.886 72.55L666.952 72.5773ZM664.577 70.7095C664.615 69.8957 664.642 68.6341 665.778 68.6341C666.914 68.6341 666.871 69.9066 666.903 70.7095H664.577ZM661.376 66.1218H660.41V67.9897H659.459V68.8198H660.41V73.7352C660.41 74.7728 660.841 74.8711 661.425 74.8602H662.518V74.0301H661.862C661.316 74.0301 661.404 73.7352 661.404 73.4839V68.8198H662.54V67.9897H661.393L661.376 66.1218ZM658.307 69.8302C658.307 68.4211 657.542 67.804 656.182 67.804C655.918 67.7829 655.652 67.8181 655.403 67.9073C655.153 67.9965 654.925 68.1376 654.734 68.3214C654.543 68.5052 654.394 68.7274 654.295 68.9733C654.196 69.2193 654.151 69.4834 654.162 69.7483C654.162 70.9443 654.784 71.3048 655.844 71.698C656.554 71.9984 657.542 72.0858 657.542 73.0634C657.542 73.9045 656.996 74.2212 656.232 74.2212C655.314 74.2212 655.03 73.6751 655.068 72.8613H654.162C654.101 73.3833 654.237 73.9092 654.544 74.3359C654.754 74.5798 655.017 74.7714 655.314 74.8956C655.611 75.0198 655.932 75.0731 656.253 75.0514C657.662 75.0514 658.575 74.2485 658.575 72.9378C658.575 71.627 657.586 71.4031 656.597 70.9552C655.931 70.6713 655.199 70.562 655.199 69.6718C655.199 68.9563 655.598 68.6341 656.292 68.6341C657.122 68.6341 657.422 69.0164 657.384 69.8302H658.307ZM651.791 72.5609C651.851 73.3419 651.589 74.1994 650.65 74.1994C649.279 74.1994 649.437 72.4189 649.416 71.4686H652.753C652.703 69.863 652.829 67.7603 650.601 67.7603C648.782 67.7603 648.416 69.9449 648.416 71.3703C648.416 74.1448 649.345 75.0077 650.644 75.0077C652.092 75.0077 652.78 73.8826 652.72 72.5336L651.791 72.5609ZM649.416 70.6931C649.454 69.8793 649.476 68.6177 650.612 68.6177C651.748 68.6177 651.704 69.8903 651.742 70.6931H649.416ZM643.998 67.9623H642.982L641.89 74.0082H641.862L640.617 67.9897H639.601L641.371 74.8657H642.381L643.473 68.8198L644.637 74.8657H645.653L647.373 67.9897H646.357L645.156 74.0355L643.998 67.9623ZM625.729 67.9623H624.779V74.8384H625.762V70.2671C625.734 70.0386 625.759 69.8067 625.836 69.5896C625.912 69.3726 626.039 69.1763 626.204 69.0164C626.466 68.7704 626.812 68.6337 627.171 68.6341C627.963 68.6341 628.198 69.1147 628.198 69.8302V74.8657H629.175V69.579C629.175 68.3665 628.509 67.8204 627.482 67.8204C627.142 67.8218 626.807 67.9066 626.507 68.0676C626.207 68.2285 625.951 68.4605 625.762 68.7433L625.729 67.9623ZM620.005 67.9623H618.984L617.892 74.0082L616.619 67.9897H615.609L617.378 74.8657H618.389L619.481 68.8198L620.644 74.8657H621.66L623.375 67.9897H622.387L621.185 74.0355L620.005 67.9623ZM613.479 71.5014C613.479 73.1398 613.195 74.2321 612.032 74.2321C610.868 74.2321 610.584 73.1398 610.584 71.5014C610.584 69.426 611.032 68.6341 612.032 68.6341C613.031 68.6341 613.479 69.426 613.479 71.5014ZM614.495 71.2174C614.495 69.1366 613.725 67.8258 612.032 67.8258C610.339 67.8258 609.574 69.1366 609.574 71.2174C609.574 74.183 610.546 75.0732 612.032 75.0732C613.517 75.0732 614.495 74.1939 614.495 71.2174ZM607.286 66.1437H606.319V68.0115H605.369V68.8416H606.319V73.757C606.319 74.7947 606.75 74.893 607.335 74.8821H608.427V74.0519H607.739C607.193 74.0519 607.28 73.757 607.28 73.5058V68.8198H608.416V67.9897H607.269L607.286 66.1437ZM601.824 72.5992C601.884 73.3802 601.627 74.2376 600.683 74.2376C599.312 74.2376 599.476 72.4572 599.448 71.5069H602.785C602.736 69.9012 602.862 67.7985 600.633 67.7985C598.82 67.7985 598.449 69.9831 598.449 71.4086C598.449 74.183 599.377 75.0459 600.677 75.0459C602.124 75.0459 602.818 73.9208 602.753 72.5719L601.824 72.5992ZM599.448 70.7313C599.487 69.9176 599.508 68.656 600.65 68.656C601.791 68.656 601.742 69.9285 601.775 70.7313H599.448ZM593.337 74.1721C593.472 74.4415 593.682 74.6665 593.942 74.8204C594.201 74.9743 594.499 75.0507 594.801 75.0405C596.658 75.0405 596.985 72.9159 596.985 70.9607C596.985 69.5516 596.477 67.793 594.73 67.793C594.428 67.8055 594.136 67.9008 593.886 68.0684C593.635 68.2361 593.436 68.4696 593.31 68.7433V67.9787H592.365V77.1814H593.342L593.337 74.1721ZM595.986 71.3266C595.986 73.1835 595.664 74.2431 594.648 74.2431C593.299 74.2431 593.337 72.3916 593.337 71.4359C593.337 70.4801 593.337 68.656 594.637 68.656C595.937 68.656 595.986 70.4255 595.986 71.3266ZM590.89 74.1721C590.751 74.1939 590.609 74.1939 590.47 74.1721C590.273 74.0683 590.295 73.8225 590.295 73.6259V69.6718C590.295 69.5134 590.47 67.804 588.427 67.804C587.045 67.804 586.335 68.4211 586.384 69.8466H587.264C587.264 69.0383 587.378 68.6341 588.269 68.6341C589.061 68.6341 589.361 68.929 589.361 69.7264C589.361 70.0814 589.361 70.3545 589.175 70.5183C589.05 70.6166 587.668 71.1355 587.111 71.3812C586.8 71.5314 586.54 71.7702 586.364 72.0675C586.188 72.3648 586.104 72.7075 586.122 73.0525C586.122 74.3031 586.516 75.0678 587.892 75.0678C588.223 75.0489 588.541 74.9361 588.81 74.7426C589.079 74.5492 589.287 74.283 589.41 73.9755H589.437C589.536 74.9148 589.842 74.9913 590.672 74.9531C590.745 74.9315 590.82 74.915 590.896 74.9039L590.89 74.1721ZM589.279 72.8449C589.311 73.1765 589.21 73.5073 588.998 73.7645C588.787 74.0217 588.481 74.1842 588.15 74.2163C588.126 74.2186 588.102 74.2203 588.078 74.2212C587.286 74.2212 587.111 73.7788 587.111 73.0852C587.087 72.8503 587.132 72.6136 587.24 72.4035C587.347 72.1933 587.513 72.0185 587.717 71.9001C588.236 71.6489 588.782 71.4413 589.263 71.1573L589.279 72.8449ZM582.905 68.6341C583.834 68.6341 584.031 69.3987 584.041 70.1524H584.959C584.959 68.8799 584.304 67.804 582.916 67.804C580.814 67.804 580.541 69.8302 580.541 71.5123C580.541 73.2982 580.841 75.0514 582.944 75.0514C584.473 75.0514 584.97 73.7898 585.008 72.4681H584.08C584.031 73.3092 583.932 74.2212 582.867 74.2212C581.617 74.2212 581.556 72.6265 581.556 71.7253C581.556 70.8242 581.48 68.6341 582.905 68.6341Z" fill="black"/>
<path d="M703.348 79.5788H702.479V81.25H701.627V81.9873H702.479V86.3565C702.479 87.285 702.873 87.3724 703.392 87.3615H704.358V86.6242H703.768C703.282 86.6242 703.359 86.3565 703.359 86.149V81.96H704.407V81.2227H703.375L703.348 79.5788ZM697.307 81.25H696.455V87.3888H697.307V83.2817C697.285 83.0812 697.31 82.8784 697.379 82.6889C697.448 82.4995 697.56 82.3285 697.706 82.1894C697.938 81.9672 698.248 81.8439 698.569 81.8453C699.285 81.8453 699.492 82.2768 699.492 82.9376V87.4325H700.371V82.6973C700.4 82.4884 700.38 82.2757 700.315 82.0753C700.249 81.8749 700.138 81.6921 699.992 81.5406C699.845 81.3892 699.666 81.273 699.468 81.2009C699.269 81.1288 699.057 81.1027 698.848 81.1244C698.546 81.1229 698.248 81.1946 697.979 81.3335C697.711 81.4724 697.481 81.6743 697.307 81.9218V81.25ZM693.899 85.3462C693.954 86.0398 693.725 86.8153 692.878 86.8153C691.644 86.8153 691.786 85.226 691.786 84.3959H694.784C694.741 82.9595 694.85 81.0807 692.851 81.0807C691.212 81.0807 690.874 83.0141 690.874 84.3085C690.874 86.7825 691.704 87.5526 692.873 87.5526C694.173 87.5526 694.795 86.5477 694.741 85.368L693.899 85.3462ZM691.769 83.6804C691.802 82.9486 691.824 81.8235 692.862 81.8235C693.899 81.8235 693.839 82.9595 693.872 83.6804H691.769ZM683.108 83.2817C683.081 83.0829 683.102 82.8807 683.167 82.6912C683.233 82.5016 683.341 82.3299 683.484 82.1894C683.719 81.9674 684.03 81.8441 684.353 81.8453C685.063 81.8453 685.276 82.2768 685.276 82.9376V87.4325H686.15V83.3254C686.129 83.1245 686.154 82.9215 686.224 82.7321C686.294 82.5427 686.407 82.372 686.554 82.2331C686.775 82.0216 687.067 81.8991 687.373 81.889C688.127 81.889 688.318 82.2768 688.318 82.9813V87.4761H689.197V83.0359C689.266 82.5262 689.13 82.0099 688.82 81.5996C688.508 81.3201 688.103 81.1664 687.684 81.1681C687.349 81.1665 687.019 81.256 686.73 81.4273C686.442 81.5985 686.205 81.845 686.046 82.1403C685.919 81.8551 685.713 81.6122 685.453 81.4399C685.193 81.2677 684.889 81.1734 684.577 81.1681C684.278 81.1741 683.987 81.2566 683.729 81.4077C683.472 81.5588 683.258 81.7734 683.108 82.031V81.25H682.261V87.3888H683.108V83.2817ZM679.787 79.5788H678.919V81.25H678.067V81.9873H678.919V86.3565C678.919 87.285 679.306 87.3724 679.831 87.3615H680.797V86.6242H680.208C679.721 86.6242 679.798 86.3565 679.798 86.149V81.96H680.819V81.2227H679.787V79.5788ZM676.92 82.8939C676.92 81.6378 676.232 81.0807 675.008 81.0807C674.772 81.062 674.535 81.0936 674.312 81.1733C674.089 81.253 673.885 81.379 673.714 81.5431C673.543 81.7072 673.409 81.9056 673.321 82.1252C673.232 82.3449 673.191 82.5808 673.2 82.8175C673.2 83.9098 673.747 84.2102 674.708 84.5597C675.341 84.8273 676.232 84.9038 676.232 85.7776C676.232 86.5258 675.767 86.8153 675.052 86.8153C674.233 86.8153 673.96 86.3511 674.009 85.6028H673.179C673.126 86.0674 673.248 86.5349 673.523 86.9136C673.71 87.1316 673.946 87.3029 674.212 87.4138C674.477 87.5247 674.765 87.5722 675.052 87.5526C676.319 87.5526 677.144 86.8372 677.144 85.6684C677.144 84.4996 676.253 84.2976 675.363 83.8989C674.768 83.6476 674.112 83.5439 674.112 82.7519C674.112 82.113 674.467 81.8235 675.09 81.8235C675.833 81.8235 676.1 82.1676 676.068 82.9158L676.92 82.8939ZM670.956 85.3462C671.01 86.0398 670.775 86.8153 669.934 86.8153C668.7 86.8153 668.842 85.226 668.842 84.3959H671.846C671.797 82.9595 671.911 81.0807 669.913 81.0807C668.274 81.0807 667.936 83.0141 667.936 84.3085C667.936 86.7825 668.766 87.5526 669.934 87.5526C671.234 87.5526 671.857 86.5477 671.797 85.368L670.956 85.3462ZM668.82 83.6804C668.853 82.9486 668.88 81.8235 669.913 81.8235C670.945 81.8235 670.89 82.9595 670.923 83.6804H668.82ZM664.145 87.3888H665.101L666.958 81.25H666.046L664.648 86.6515L663.244 81.25H662.332L664.145 87.3888ZM657.985 81.25H657.127V87.3888H657.985V83.2817C657.963 83.0812 657.987 82.8784 658.056 82.6889C658.125 82.4995 658.237 82.3285 658.383 82.1894C658.618 81.9674 658.929 81.8441 659.252 81.8453C659.962 81.8453 660.175 82.2768 660.175 82.9376V87.4325H661.054V82.6973C661.082 82.4884 661.063 82.2757 660.997 82.0753C660.931 81.8749 660.821 81.6921 660.674 81.5406C660.528 81.3892 660.348 81.273 660.15 81.2009C659.952 81.1288 659.74 81.1027 659.53 81.1244C659.227 81.1229 658.929 81.1947 658.66 81.3335C658.391 81.4723 658.159 81.6742 657.985 81.9218V81.25ZM655.199 79.1091H654.32V80.2014H655.199V79.1091ZM655.199 81.25H654.32V87.3888H655.199V81.25ZM642.201 85.3462C642.256 86.0398 642.021 86.8153 641.18 86.8153C639.945 86.8153 640.087 85.226 640.087 84.3959H643.091C643.042 82.9595 643.157 81.0807 641.158 81.0807C639.519 81.0807 639.181 83.0141 639.181 84.3085C639.181 86.7825 640.011 87.5526 641.18 87.5526C642.479 87.5526 643.102 86.5477 643.042 85.368L642.201 85.3462ZM640.066 83.6804C640.104 82.9486 640.126 81.8235 641.158 81.8235C642.19 81.8235 642.135 82.9595 642.168 83.6804H640.066ZM636.625 81.8781C636.478 81.6321 636.269 81.4291 636.018 81.2891C635.768 81.1492 635.486 81.0774 635.199 81.0807C633.878 81.0807 633.282 82.5062 633.348 84.3085C633.348 84.8546 633.211 87.5526 635.156 87.5526C635.478 87.5798 635.799 87.4998 636.071 87.3249C636.343 87.1501 636.549 86.8902 636.658 86.5859V87.3888H637.504V79.1091H636.625V81.8781ZM636.625 84.9802C636.625 85.6793 636.368 86.8153 635.456 86.8153C634.26 86.8153 634.211 85.6138 634.211 84.2866C634.211 82.397 634.691 81.8235 635.423 81.8235C636.603 81.8235 636.625 83.38 636.625 84.2211V84.9802ZM632.157 86.7498C632.033 86.7716 631.905 86.7716 631.78 86.7498C631.6 86.6624 631.627 86.4385 631.627 86.2855V82.7629C631.627 82.6209 631.78 81.0917 629.945 81.0917C628.706 81.0917 628.072 81.6378 628.116 82.9158H628.902C628.902 82.2003 629.006 81.8235 629.803 81.8235C630.513 81.8235 630.781 82.0856 630.781 82.7847C630.781 83.1069 630.781 83.3309 630.612 83.4892C630.502 83.5766 629.257 84.0354 628.76 84.2648C628.481 84.3973 628.247 84.6098 628.089 84.8752C627.93 85.1406 627.854 85.4471 627.87 85.7558C627.87 86.8481 628.225 87.5526 629.459 87.5526C629.758 87.5359 630.046 87.4332 630.288 87.2569C630.531 87.0806 630.717 86.8381 630.825 86.5586C630.917 87.3997 631.191 87.4652 631.917 87.4325C631.981 87.4127 632.047 87.3981 632.114 87.3888L632.157 86.7498ZM630.677 85.5646C630.694 85.7114 630.681 85.8601 630.64 86.002C630.599 86.144 630.531 86.2765 630.439 86.392C630.347 86.5076 630.233 86.6038 630.103 86.6752C629.974 86.7467 629.832 86.792 629.685 86.8085C629.652 86.8123 629.618 86.8145 629.585 86.8153C628.869 86.8153 628.717 86.4166 628.717 85.7995C628.695 85.5889 628.735 85.3767 628.832 85.1886C628.929 85.0005 629.079 84.8447 629.263 84.7399C629.727 84.516 630.218 84.3303 630.65 84.0736L630.677 85.5646ZM625.216 81.25H624.369V87.3888H625.248V83.6695C625.248 82.5772 625.915 81.8453 627.051 82.031V81.1736C626.668 81.1118 626.276 81.1876 625.944 81.3876C625.612 81.5876 625.362 81.8988 625.238 82.2659L625.216 81.25ZM621.873 79.5788H620.999V81.25H620.147V81.9873H620.999V86.3565C620.999 87.285 621.387 87.3724 621.911 87.3615H622.878V86.6242H622.288C621.802 86.6242 621.879 86.3565 621.879 86.149V81.96H622.9V81.2227H621.868L621.873 79.5788ZM617.706 87.3888C617.737 87.7379 617.634 88.0858 617.417 88.3609C617.349 88.4354 617.259 88.4853 617.16 88.5029V88.9999C617.317 88.9516 617.464 88.8778 617.597 88.7814C617.77 88.6394 617.907 88.4585 617.997 88.2536C618.087 88.0486 618.128 87.8253 618.116 87.6018C618.159 87.1812 618.149 86.4712 618.149 86.2965H617.155V87.3888H617.706ZM609.017 83.2817C608.991 83.0824 609.012 82.8798 609.078 82.69C609.144 82.5003 609.254 82.3288 609.399 82.1894C609.631 81.9667 609.941 81.8433 610.262 81.8453C610.972 81.8453 611.185 82.2768 611.185 82.9376V87.4325H612.064V83.3254C612.042 83.1249 612.067 82.9221 612.136 82.7326C612.205 82.5432 612.317 82.3722 612.463 82.2331C612.686 82.0237 612.977 81.9016 613.282 81.889C614.041 81.889 614.227 82.2768 614.227 82.9813V87.4761H615.106V83.0359C615.175 82.5262 615.04 82.0099 614.73 81.5996C614.418 81.3192 614.013 81.1654 613.594 81.1681C613.258 81.1671 612.929 81.2569 612.64 81.4281C612.352 81.5992 612.115 81.8453 611.955 82.1403C611.841 81.8363 611.638 81.5732 611.374 81.3846C611.109 81.1959 610.794 81.0902 610.47 81.0807C610.163 81.0955 609.865 81.1912 609.607 81.3581C609.349 81.525 609.14 81.7571 609.001 82.031V81.25H608.138V87.3888H609.011L609.017 83.2817ZM606.253 82.8939C606.253 81.6378 605.565 81.0807 604.342 81.0807C604.106 81.062 603.868 81.0936 603.645 81.1733C603.422 81.253 603.219 81.379 603.048 81.5431C602.877 81.7072 602.743 81.9056 602.654 82.1252C602.566 82.3449 602.525 82.5808 602.534 82.8175C602.534 83.9098 603.08 84.2102 604.041 84.5597C604.675 84.8273 605.565 84.9038 605.565 85.7776C605.565 86.5258 605.096 86.8153 604.386 86.8153C603.566 86.8153 603.293 86.3511 603.342 85.6028H602.507C602.467 85.8613 602.488 86.1253 602.567 86.3744C602.646 86.6236 602.782 86.8512 602.963 87.0397C603.144 87.2282 603.366 87.3724 603.612 87.4614C603.857 87.5503 604.12 87.5815 604.38 87.5526C605.647 87.5526 606.472 86.8372 606.472 85.6684C606.472 84.4996 605.582 84.2976 604.691 83.8989C604.091 83.6476 603.435 83.5439 603.435 82.7519C603.435 82.113 603.79 81.8235 604.413 81.8235C605.161 81.8235 605.423 82.1676 605.39 82.9158L606.253 82.8939ZM600.912 79.1091H600.027V80.2014H600.907L600.912 79.1091ZM600.912 81.25H600.027V87.3888H600.907L600.912 81.25ZM596.942 81.25H596.095V87.3888H596.974V83.6695C596.974 82.5772 597.641 81.8453 598.771 82.031V81.1736C598.389 81.1063 597.995 81.1798 597.662 81.3807C597.33 81.5815 597.082 81.896 596.963 82.2659H596.936L596.942 81.25ZM593.146 87.3888H594.025V81.25H593.14V85.1932C593.158 85.5742 593.069 85.9525 592.884 86.2855C592.767 86.4564 592.609 86.5957 592.425 86.691C592.241 86.7863 592.037 86.8346 591.83 86.8317C591.207 86.8317 591.038 86.5532 591.038 86.0343V81.2664H590.164V85.9633C590.164 87.0556 590.71 87.5308 591.649 87.5308C591.961 87.5259 592.264 87.4324 592.525 87.2612C592.785 87.09 592.991 86.8482 593.118 86.5641L593.146 87.3888ZM587.504 84.3849C587.504 85.8322 587.247 86.8153 586.204 86.8153C585.161 86.8153 584.904 85.8322 584.904 84.3849C584.904 82.528 585.303 81.8235 586.204 81.8235C587.105 81.8235 587.504 82.528 587.504 84.3849ZM588.411 84.1119C588.411 82.255 587.723 81.0807 586.226 81.0807C584.73 81.0807 584.014 82.255 584.014 84.1119C584.014 86.7607 584.888 87.5526 586.226 87.5526C587.564 87.5526 588.411 86.7716 588.411 84.1119ZM581.824 79.5788H580.978V81.25H580.098V81.9873H580.978V86.3565C580.978 87.285 581.371 87.3724 581.89 87.3615H582.856V86.6242H582.239C581.753 86.6242 581.83 86.3565 581.83 86.149V81.96H582.851V81.2227H581.819L581.824 79.5788Z" fill="black"/>
<path d="M648.427 83.6368C648.734 83.4741 648.997 83.2406 649.196 82.9556C649.394 82.6707 649.522 82.3425 649.569 81.9983C649.561 81.6468 649.415 81.3123 649.162 81.0685C648.908 80.8247 648.568 80.6915 648.217 80.698C647.865 80.7045 647.531 80.8503 647.286 81.1033C647.042 81.3563 646.908 81.6959 646.914 82.0475C646.943 82.6004 647.168 83.1251 647.548 83.5276C646.75 84.03 646.182 84.527 646.182 85.5319C646.164 85.7914 646.202 86.0518 646.294 86.2952C646.386 86.5386 646.53 86.7592 646.715 86.9419C646.9 87.1245 647.123 87.2649 647.367 87.3534C647.612 87.4418 647.873 87.4763 648.132 87.4544C648.434 87.4612 648.734 87.3965 649.006 87.2655C649.279 87.1345 649.516 86.941 649.7 86.7007L650.12 87.3124H651.016L650.137 86.089C650.428 85.5215 650.592 84.897 650.617 84.2594H649.956C649.928 84.6807 649.842 85.0961 649.7 85.4937L648.427 83.6368ZM648.105 83.1562C647.82 82.8185 647.642 82.4043 647.591 81.9656C647.584 81.8813 647.594 81.7963 647.619 81.7157C647.645 81.635 647.686 81.5601 647.741 81.4954C647.795 81.4307 647.862 81.3773 647.937 81.3383C648.012 81.2994 648.094 81.2756 648.178 81.2684C648.189 81.2675 648.199 81.2669 648.209 81.2665C648.381 81.2696 648.545 81.3411 648.665 81.4652C648.784 81.5893 648.85 81.7558 648.847 81.9282C648.846 81.9498 648.845 81.9714 648.842 81.9929C648.825 82.2326 648.749 82.4644 648.62 82.6675C648.491 82.8705 648.314 83.0384 648.105 83.1562L648.105 83.1562ZM649.312 86.1709C649.186 86.3475 649.023 86.4943 648.834 86.601C648.646 86.7076 648.436 86.7715 648.22 86.7881C648.051 86.8001 647.882 86.7759 647.723 86.7172C647.565 86.6585 647.421 86.5665 647.301 86.4476C647.181 86.3286 647.088 86.1854 647.028 86.0274C646.968 85.8695 646.942 85.7006 646.953 85.5319C646.959 85.2214 647.048 84.9183 647.21 84.6534C647.372 84.3886 647.602 84.1715 647.875 84.0246L649.312 86.1709Z" fill="black"/>
<path d="M603.856 49.5952V29.0327H599.186V49.5952C599.186 51.3812 598.329 52.8285 596.718 52.8285C595.107 52.8285 594.255 51.3812 594.255 49.5952V29.0327H589.596V49.5952C589.596 51.3812 588.738 52.8285 587.127 52.8285C585.516 52.8285 584.664 51.3812 584.664 49.5952V29.0327H580V49.5952C580 53.9644 583.19 57.498 587.1 57.498C587.998 57.4911 588.885 57.3043 589.71 56.9488C590.534 56.5933 591.279 56.0762 591.901 55.4281C592.521 56.0756 593.265 56.5923 594.089 56.9478C594.913 57.3032 595.799 57.4903 596.696 57.498C600.639 57.498 603.829 53.959 603.829 49.5952" fill="black"/>
<path d="M664.156 49.5953V43.2545H656.658V47.9241H659.492V49.5953C659.493 50.4528 659.153 51.2755 658.547 51.8823C657.941 52.4891 657.119 52.8305 656.262 52.8312C655.404 52.8319 654.581 52.4919 653.975 51.8861C653.368 51.2802 653.026 50.4581 653.026 49.6006V49.5953V36.941C653.025 36.5164 653.109 36.0959 653.271 35.7035C653.433 35.3111 653.671 34.9545 653.971 34.654C654.271 34.3535 654.627 34.1151 655.019 33.9523C655.411 33.7895 655.832 33.7055 656.256 33.7052C656.681 33.7048 657.101 33.7881 657.494 33.9503C657.886 34.1124 658.243 34.3503 658.543 34.6503C658.844 34.9502 659.082 35.3065 659.245 35.6986C659.408 36.0908 659.492 36.5111 659.492 36.9357V36.941V38.9126H664.162V36.9028C664.162 34.8068 663.329 32.7967 661.847 31.3147C660.365 29.8326 658.355 29 656.259 29C654.163 29 652.153 29.8326 650.671 31.3147C649.189 32.7967 648.356 34.8068 648.356 36.9028V49.5953C648.356 51.6912 649.189 53.7014 650.671 55.1834C652.153 56.6655 654.163 57.4981 656.259 57.4981C658.355 57.4981 660.365 56.6655 661.847 55.1834C663.329 53.7014 664.162 51.6912 664.162 49.5953" fill="black"/>
<path d="M680.186 36.941V37.6838C680.186 38.5413 679.845 39.3637 679.239 39.97C678.632 40.5764 677.81 40.917 676.952 40.917H673.714V33.7187H676.952C677.81 33.7187 678.632 34.0594 679.239 34.6657C679.845 35.2721 680.186 36.0944 680.186 36.9519V36.941ZM682.523 49.6062V48.8362C682.525 47.2474 682.045 45.6954 681.147 44.385C682.261 43.6875 683.183 42.7226 683.83 41.5781C684.477 40.4336 684.827 39.1456 684.85 37.8312V36.739C684.796 34.6811 683.941 32.7255 682.467 31.2883C680.993 29.8512 679.017 29.0458 676.958 29.0437H669.05V57.4981H673.719V45.5811H674.62C675.045 45.5818 675.465 45.6662 675.857 45.8293C676.249 45.9925 676.605 46.2312 676.905 46.532C677.205 46.8327 677.442 47.1895 677.604 47.5821C677.766 47.9746 677.849 48.3952 677.848 48.8198V48.8252V49.5953C677.848 51.6913 678.681 53.7014 680.163 55.1834C681.645 56.6655 683.655 57.4981 685.751 57.4981V52.8285C684.893 52.8285 684.071 52.4879 683.465 51.8815C682.858 51.2752 682.518 50.4528 682.518 49.5953" fill="black"/>
<path d="M700.339 36.9411V49.5954C700.339 50.4529 699.999 51.2755 699.394 51.8824C698.788 52.4892 697.966 52.8305 697.108 52.8312C696.251 52.8319 695.428 52.492 694.821 51.8861C694.214 51.2803 693.873 50.4582 693.872 49.6007V49.5954V36.9411C693.872 36.0836 694.211 35.2609 694.817 34.6541C695.423 34.0472 696.245 33.7059 697.103 33.7052C697.96 33.7045 698.783 34.0445 699.39 34.6503C699.997 35.2562 700.338 36.0783 700.339 36.9358V36.9411ZM705.008 49.5954V36.9138C705.008 34.8178 704.176 32.8077 702.694 31.3257C701.211 29.8436 699.201 29.011 697.105 29.011C695.009 29.011 692.999 29.8436 691.517 31.3257C690.035 32.8077 689.203 34.8178 689.203 36.9138V49.5954C689.257 51.6561 690.113 53.6142 691.59 55.0525C693.067 56.4909 695.047 57.2958 697.108 57.2958C699.17 57.2958 701.15 56.4909 702.626 55.0525C704.103 53.6142 704.96 51.6561 705.014 49.5954" fill="black"/>
</g>
<rect width="256" height="120" transform="translate(768)" fill="white"/>
<g clip-path="url(#clip2_309_12677)">
<path fill-rule="evenodd" clip-rule="evenodd" d="M844.442 40.6582L829 42.0629L830.202 50.2852L891.577 66.5323L844.442 40.6582Z" fill="black"/>
<path fill-rule="evenodd" clip-rule="evenodd" d="M862.494 31.4312L849.658 30.2292L847.052 38.8538L893.584 66.1326L862.494 31.4312Z" fill="black"/>
<path fill-rule="evenodd" clip-rule="evenodd" d="M882.353 27.0204L872.323 23.209L866.306 30.6291L894.586 65.9302L882.353 27.0204Z" fill="black"/>
<path fill-rule="evenodd" clip-rule="evenodd" d="M895.588 20L885.962 27.0203L895.791 65.9301L905.618 26.618L895.588 20Z" fill="black"/>
<path fill-rule="evenodd" clip-rule="evenodd" d="M919.256 22.8066L909.229 27.4202L896.593 65.7303L925.876 30.6291L919.256 22.8066Z" fill="black"/>
<path fill-rule="evenodd" clip-rule="evenodd" d="M941.921 30.2292L928.886 31.8338L897.795 66.1326L945.13 39.0537L941.921 30.2292Z" fill="black"/>
<path fill-rule="evenodd" clip-rule="evenodd" d="M947.337 40.8582L899.4 66.5323L961.577 50.8874L962.38 42.0629L947.337 40.8582Z" fill="black"/>
<path fill-rule="evenodd" clip-rule="evenodd" d="M840.503 93.6008V99.9147H841.34V96.6577H841.359L842.539 99.9147H843.501L842.161 96.6577L843.4 93.6008H842.539L841.375 96.6577H841.348L841.34 93.6008H840.503Z" fill="black"/>
<path fill-rule="evenodd" clip-rule="evenodd" d="M851.567 93.6008L850.194 99.9148H851.015L851.25 98.6835H852.505L852.739 99.9148H853.584L852.228 93.6008H851.567ZM852.377 98.0305H851.372L851.873 94.8242H851.889L852.206 97.119L852.377 98.0305Z" fill="black"/>
<path fill-rule="evenodd" clip-rule="evenodd" d="M860.751 93.6008V99.9147H862.995V99.1872H861.588V93.6008H860.751Z" fill="black"/>
<path fill-rule="evenodd" clip-rule="evenodd" d="M870.138 93.6008V99.9147H872.39V99.1872H870.975V97.0414H872.241V96.3139H870.975V94.3284H872.39V93.6008H870.138Z" fill="black"/>
<path d="M880.495 93.6008H879.658V99.9148H880.495V93.6008Z" fill="black"/>
<path fill-rule="evenodd" clip-rule="evenodd" d="M888.131 93.6008V99.9148H888.709C890.207 99.9148 891.18 99.7815 891.18 96.8658C891.18 93.6675 890.058 93.6008 889.069 93.6008L888.131 93.6008ZM890.293 96.8657C890.293 97.9372 890.351 99.2431 888.971 99.2032V94.3124C890.383 94.2298 890.293 95.8956 890.293 96.8658L890.293 96.8657Z" fill="black"/>
<path fill-rule="evenodd" clip-rule="evenodd" d="M900.133 93.5181C898.507 93.5181 898.491 95.6209 898.491 96.759C898.491 97.8971 898.507 99.9999 900.133 99.9999C901.756 99.9999 901.775 97.8971 901.775 96.759C901.772 95.6183 901.756 93.5181 900.133 93.5181ZM900.133 94.3043C900.794 94.3043 900.887 95.4184 900.887 96.759C900.887 98.0996 900.794 99.2137 900.133 99.2137C899.472 99.2137 899.379 98.0996 899.379 96.759C899.379 95.4184 899.469 94.3043 900.133 94.3043Z" fill="black"/>
<path fill-rule="evenodd" clip-rule="evenodd" d="M911.199 93.7261C910.928 93.5758 910.621 93.503 910.311 93.5155C909.365 93.5155 908.896 94.2432 908.896 95.1307C908.896 96.7885 910.663 97.039 910.663 98.297C910.663 98.7661 910.445 99.1765 909.925 99.1765C909.62 99.1638 909.327 99.0483 909.096 98.8487V99.6936C909.36 99.8964 909.685 100.003 910.018 99.9948C910.948 99.9948 911.5 99.2325 911.5 98.345C911.5 97.4921 911.172 97.071 910.605 96.4953L909.968 95.7997C909.808 95.6069 909.724 95.3622 909.733 95.112C909.726 95.009 909.74 94.9056 909.774 94.8081C909.808 94.7106 909.861 94.621 909.931 94.5449C910.001 94.4688 910.086 94.4078 910.18 94.3655C910.274 94.3233 910.376 94.3007 910.479 94.2991C910.74 94.3056 910.99 94.3994 911.191 94.5657L911.199 93.7261Z" fill="black"/>
<path fill-rule="evenodd" clip-rule="evenodd" d="M921.271 93.702C921.051 93.5709 920.799 93.5069 920.543 93.5181C918.827 93.5181 918.667 95.5943 918.667 96.8603C918.667 98.1823 918.893 100 920.602 100C920.837 100.009 921.07 99.948 921.271 99.8241V99.0884C921.117 99.1713 920.945 99.2143 920.77 99.2137C919.624 99.2137 919.554 97.6386 919.554 96.8017C919.554 96.0154 919.562 94.307 920.735 94.307C920.924 94.3171 921.107 94.3719 921.271 94.4669L921.271 93.702Z" fill="black"/>
<path fill-rule="evenodd" clip-rule="evenodd" d="M930.016 93.5181C928.39 93.5181 928.374 95.6209 928.374 96.759C928.374 97.8971 928.39 99.9999 930.016 99.9999C931.639 99.9999 931.657 97.8971 931.657 96.759C931.655 95.6183 931.639 93.5181 930.016 93.5181ZM930.016 94.3043C930.677 94.3043 930.77 95.4184 930.77 96.759C930.77 98.0996 930.677 99.2137 930.016 99.2137C929.355 99.2137 929.261 98.0996 929.261 96.759C929.261 95.4184 929.352 94.3043 930.016 94.3043Z" fill="black"/>
<path fill-rule="evenodd" clip-rule="evenodd" d="M939.97 99.9148V97.119C941.276 97.1696 941.78 96.5752 941.78 95.2933C941.78 93.6701 940.858 93.6008 940.138 93.6008H939.133V99.9148H939.97ZM940.085 94.3125C940.722 94.3125 940.89 94.7895 940.89 95.3599C940.89 96.0635 940.69 96.458 939.968 96.4073V94.3151H940.085V94.3125Z" fill="black"/>
<path fill-rule="evenodd" clip-rule="evenodd" d="M948.995 93.6008V99.9147H951.247V99.1872H949.832V97.0414H951.098V96.3139H949.832V94.3284H951.247V93.6008H948.995Z" fill="black"/>
<path fill-rule="evenodd" clip-rule="evenodd" d="M834.085 72.2521L838.179 69.5203H840.887V72.1056L844.088 69.5203L847.116 69.5256V85.2852H843.936L843.845 71.3673L840.89 73.7074C840.89 73.7074 840.591 82.2681 840.804 85.2346L837.571 85.2852V71.4926L834.237 73.766L834.363 85.2799L831.055 85.2852V69.5256H834.085L834.085 72.2521Z" fill="black"/>
<path fill-rule="evenodd" clip-rule="evenodd" d="M902.281 72.4041H901.22V70.8876L897.715 70.8742L897.787 84.2244C899 84.5656 900.311 84.4137 900.916 83.1637V81.7991H902.129C902.47 83.3156 901.521 84.5256 900.311 85.1333L894.552 85.2852L894.666 71.2127C896.22 68.7127 899.837 69.8588 902.281 69.6749V72.4041L902.281 72.4041Z" fill="black"/>
<path fill-rule="evenodd" clip-rule="evenodd" d="M854.999 83.7688L858.635 81.3435V72.4041H861.516V85.2852H858.635V82.7079L854.68 85.2799L852.118 85.2852V72.4041H854.999V83.7688Z" fill="black"/>
<path fill-rule="evenodd" clip-rule="evenodd" d="M869.85 84.3738L873.336 84.3845V85.2852H866.82V72.4041H869.85V84.3738Z" fill="black"/>
<path fill-rule="evenodd" clip-rule="evenodd" d="M883.339 73.3129H880.005L879.994 85.2852H876.975V73.3368L873.336 73.3129V72.4041H883.339V73.3129Z" fill="black"/>
<path d="M889.4 72.4041H886.369V85.2852H889.4V72.4041Z" fill="black"/>
<path fill-rule="evenodd" clip-rule="evenodd" d="M908.798 78.0093L912.284 75.5865V72.4041H915.317V85.2852H912.284V77.1004L908.798 79.5257V85.2852H905.767V72.4041H908.798V78.0093Z" fill="black"/>
<path d="M938.198 72.4041H935.167V85.2852H938.198V72.4041Z" fill="black"/>
<path fill-rule="evenodd" clip-rule="evenodd" d="M950.021 74.8267H948.96V73.4621C948.24 73.1956 947.332 73.3475 946.535 73.3102L946.383 84.2217C946.913 84.4883 947.595 84.3363 948.2 84.3737C949.035 83.9179 948.995 83.0863 948.957 82.2521H949.866C950.055 83.4648 949.752 84.7521 948.502 85.1306H943.35C943.464 81.1913 943.083 77.0602 943.654 73.3102C945.093 71.6444 948.137 72.2255 950.018 72.4013V74.8267L950.021 74.8267Z" fill="black"/>
<path fill-rule="evenodd" clip-rule="evenodd" d="M960.325 73.1612H956.99L956.839 77.4042L959.568 77.3935V78.3131H956.99L956.839 84.3738L960.325 84.4192V85.2852H953.808V72.4041H960.325V73.1612Z" fill="black"/>
<path fill-rule="evenodd" clip-rule="evenodd" d="M928.8 72.5532C926.111 72.6678 922.361 71.455 920.466 73.6139V84.2217C920.655 84.8267 921.3 85.0159 921.831 85.1306C924.408 85.0159 928.083 86.2285 929.864 84.0697V73.6139C929.632 73.1554 929.259 72.7835 928.8 72.5532ZM926.833 84.3763H923.651V73.4646H926.833V84.3763Z" fill="black"/>
</g>
<rect width="256" height="120" transform="translate(1024)" fill="white"/>
<g clip-path="url(#clip3_309_12677)">
<path d="M1138.37 69.3783H1134.17C1133.88 69.3627 1133.6 69.2784 1133.35 69.1322C1133.1 68.986 1132.88 68.7822 1132.73 68.5377L1127.92 62.0534V68.1775C1127.92 68.4959 1127.8 68.8014 1127.57 69.0265C1127.35 69.2517 1127.04 69.3783 1126.72 69.3783H1123.48C1123.18 69.3798 1122.89 69.2699 1122.67 69.07C1122.45 68.8702 1122.31 68.5948 1122.28 68.2975V44.8819C1122.28 44.5953 1122.39 44.3204 1122.6 44.1177C1122.8 43.9151 1123.07 43.8012 1123.36 43.8012H1126.84C1126.99 43.788 1127.15 43.806 1127.29 43.8541C1127.43 43.9021 1127.57 43.9792 1127.68 44.0806C1127.79 44.182 1127.88 44.3054 1127.94 44.4433C1128.01 44.5811 1128.04 44.7304 1128.04 44.8819V57.3702L1133.33 50.8859C1133.47 50.6981 1133.65 50.5458 1133.86 50.4414C1134.06 50.337 1134.29 50.2836 1134.53 50.2855H1138.25C1139.09 50.2855 1139.57 50.7658 1138.97 51.7265L1132.37 59.5317L1139.09 68.4176C1139.57 68.8979 1139.09 69.3783 1138.37 69.3783ZM1114.11 54.4883C1115.56 54.4883 1117 54.6084 1118.32 54.7285C1119.16 54.8486 1119.4 54.4883 1119.4 53.7678V51.6064C1119.41 51.2921 1119.31 50.9841 1119.11 50.7406C1118.91 50.4972 1118.63 50.3352 1118.32 50.2855C1116.86 49.9416 1115.37 49.7803 1113.87 49.8052C1106.31 49.8052 1105.95 56.7698 1105.71 57.9706C1105.59 59.048 1105.59 60.1354 1105.71 61.2128C1105.83 62.5337 1106.31 69.3783 1113.87 69.3783C1115.37 69.3968 1116.86 69.2356 1118.32 68.8979C1118.63 68.8434 1118.9 68.6802 1119.1 68.4379C1119.3 68.1955 1119.41 67.8901 1119.4 67.5771V65.4156C1119.4 64.6951 1119.04 64.3349 1118.2 64.455C1116.88 64.5751 1115.44 64.6951 1113.99 64.6951C1112.31 64.5751 1111.35 63.6144 1111.23 60.8526C1111.11 59.8555 1111.11 58.8476 1111.23 57.8506C1111.59 55.569 1112.43 54.4883 1114.11 54.4883ZM1102.95 51.3662C1102.96 51.2153 1102.94 51.0633 1102.89 50.9196C1102.85 50.7759 1102.77 50.6436 1102.67 50.531C1102.57 50.4184 1102.44 50.3278 1102.31 50.2649C1102.17 50.202 1102.02 50.1682 1101.87 50.1654H1098.5C1098.22 50.1654 1097.94 50.2793 1097.74 50.482C1097.54 50.6847 1097.42 50.9595 1097.42 51.2462V68.2975C1097.42 68.5842 1097.54 68.859 1097.74 69.0617C1097.94 69.2644 1098.22 69.3783 1098.5 69.3783H1101.75C1102.03 69.3783 1102.31 69.2644 1102.51 69.0617C1102.71 68.859 1102.83 68.5842 1102.83 68.2975L1102.95 51.3662ZM1093.94 44.8819V71.1795C1093.91 71.9343 1093.6 72.6502 1093.06 73.1844C1092.53 73.7186 1091.81 74.0317 1091.06 74.0614H1064.88C1064.13 74.0317 1063.41 73.7186 1062.88 73.1844C1062.34 72.6502 1062.03 71.9343 1062 71.1795V44.8819C1062.03 44.1271 1062.34 43.4111 1062.88 42.877C1063.41 42.3428 1064.13 42.0296 1064.88 42H1091.18C1091.55 42.0078 1091.92 42.0885 1092.25 42.2376C1092.59 42.3867 1092.9 42.6012 1093.16 42.8688C1093.41 43.1364 1093.62 43.4519 1093.75 43.7974C1093.88 44.1428 1093.95 44.5113 1093.94 44.8819ZM1089.02 54.7285C1089.02 50.5257 1087.7 48.1241 1085.42 47.1634C1084.12 46.8265 1082.79 46.6649 1081.45 46.6831H1069.57C1069.28 46.6831 1069 46.797 1068.8 46.9997C1068.6 47.2023 1068.48 47.4772 1068.48 47.7638V68.1775C1068.48 68.4641 1068.6 68.739 1068.8 68.9416C1069 69.1443 1069.28 69.2582 1069.57 69.2582H1072.81C1073.09 69.2582 1073.37 69.1443 1073.57 68.9416C1073.77 68.739 1073.89 68.4641 1073.89 68.1775V62.7739H1081.45C1082.79 62.9118 1084.15 62.7476 1085.42 62.2935C1087.7 61.3329 1089.02 58.9313 1089.02 54.7285ZM1083.37 54.7285C1083.37 57.4903 1082.53 58.2108 1080.73 58.2108H1073.89V51.2462H1080.73C1082.53 51.2462 1083.37 51.9666 1083.37 54.7285ZM1213.54 49.8052C1211.6 49.808 1209.66 50.05 1207.78 50.5257C1207.5 50.5523 1207.24 50.6747 1207.04 50.8719C1206.85 51.0691 1206.72 51.3288 1206.7 51.6064V53.5277C1206.7 54.2482 1207.18 54.6084 1208.02 54.6084C1209.7 54.3682 1211.26 54.2482 1212.94 54.1281C1215.46 54.1281 1215.82 54.8486 1215.82 56.1694V56.8899C1213.9 56.79 1211.97 56.8704 1210.06 57.1301C1206.94 57.7305 1205.02 59.5317 1205.02 63.2542C1205.02 66.9767 1207.54 69.3783 1213.18 69.3783C1215.6 69.4171 1218.01 69.216 1220.39 68.7779C1220.68 68.6813 1220.94 68.4864 1221.12 68.2248C1221.29 67.9632 1221.37 67.6502 1221.35 67.3369V56.4096C1221.47 52.9273 1220.87 49.8052 1213.54 49.8052ZM1216.06 65.2955L1213.42 65.4156C1211.26 65.4156 1210.54 64.6951 1210.54 63.014C1210.54 61.3329 1211.62 60.9727 1212.82 60.7325C1213.9 60.6124 1214.99 60.6124 1216.06 60.7325V65.2955ZM1188.8 51.2462H1182.08V58.2108H1188.92C1190.61 58.2108 1191.57 57.4903 1191.57 54.7285C1191.57 51.9666 1190.61 51.2462 1188.8 51.2462ZM1199.25 42H1172.95C1172.2 42.0296 1171.48 42.3428 1170.95 42.877C1170.41 43.4111 1170.1 44.1271 1170.07 44.8819V71.1795C1170.1 71.9343 1170.41 72.6502 1170.95 73.1844C1171.48 73.7186 1172.2 74.0317 1172.95 74.0614H1199.13C1199.89 74.0317 1200.6 73.7186 1201.14 73.1844C1201.67 72.6502 1201.98 71.9343 1202.01 71.1795V44.8819C1202.01 44.1388 1201.72 43.4251 1201.21 42.8886C1200.69 42.3521 1199.99 42.0339 1199.25 42V42ZM1193.49 62.2935C1192.19 62.6305 1190.86 62.792 1189.53 62.7739H1181.96V68.1775C1181.96 68.4641 1181.85 68.739 1181.64 68.9416C1181.44 69.1443 1181.17 69.2582 1180.88 69.2582H1177.64C1177.35 69.2582 1177.08 69.1443 1176.87 68.9416C1176.67 68.739 1176.56 68.4641 1176.56 68.1775V47.7638C1176.56 47.4772 1176.67 47.2023 1176.87 46.9997C1177.08 46.797 1177.35 46.6831 1177.64 46.6831H1189.53C1190.87 46.5452 1192.22 46.7093 1193.49 47.1634C1195.77 48.1241 1197.09 50.5257 1197.09 54.7285C1197.09 58.9313 1195.77 61.3329 1193.49 62.2935ZM1242 67.8172C1242 73.8212 1239.48 76.5831 1233.23 76.5831C1231.21 76.5877 1229.19 76.3457 1227.23 75.8626C1226.94 75.8184 1226.67 75.6746 1226.47 75.4556C1226.28 75.2366 1226.16 74.9561 1226.15 74.6618V72.7405C1226.12 72.6288 1226.12 72.5121 1226.14 72.399C1226.16 72.2858 1226.21 72.1792 1226.28 72.0869C1226.35 71.9946 1226.44 71.9191 1226.54 71.866C1226.64 71.8128 1226.75 71.7834 1226.87 71.7799H1227.23C1229.09 72.1235 1230.98 72.2844 1232.87 72.2602C1236 72.2602 1236.48 71.5397 1236.48 69.018C1235.29 69.2567 1234.08 69.3774 1232.87 69.3783C1227.23 69.3783 1224.95 67.5771 1224.95 62.4136V51.1261C1224.95 50.8395 1225.06 50.5646 1225.27 50.3619C1225.47 50.1592 1225.74 50.0454 1226.03 50.0454H1229.27C1229.56 50.0454 1229.83 50.1592 1230.04 50.3619C1230.24 50.5646 1230.35 50.8395 1230.35 51.1261V62.4136C1230.35 64.2148 1231.31 64.9353 1233.59 64.9353C1234.49 64.9029 1235.38 64.7411 1236.24 64.455V51.006C1236.24 50.7194 1236.35 50.4445 1236.55 50.2418C1236.76 50.0391 1237.03 49.9253 1237.32 49.9253H1240.8C1241.09 49.9253 1241.36 50.0391 1241.56 50.2418C1241.77 50.4445 1241.88 50.7194 1241.88 51.006L1242 67.8172ZM1162.63 56.7698V68.1775C1162.63 68.4641 1162.51 68.739 1162.31 68.9416C1162.11 69.1443 1161.83 69.2582 1161.55 69.2582H1158.3C1158.02 69.2582 1157.74 69.1443 1157.54 68.9416C1157.34 68.739 1157.22 68.4641 1157.22 68.1775V56.8899C1157.22 55.449 1157.1 54.6084 1154.34 54.6084C1153.25 54.6095 1152.16 54.7303 1151.1 54.9686V68.2975C1151.1 68.5842 1150.99 68.859 1150.78 69.0617C1150.58 69.2644 1150.31 69.3783 1150.02 69.3783H1146.54C1146.25 69.3783 1145.97 69.2644 1145.77 69.0617C1145.57 68.859 1145.46 68.5842 1145.46 68.2975V52.0867C1145.39 51.832 1145.43 51.5632 1145.57 51.3385C1145.7 51.1137 1145.92 50.9511 1146.18 50.8859C1148.64 50.1744 1151.18 49.8106 1153.74 49.8052C1160.35 49.8052 1162.63 52.3269 1162.63 56.7698Z" fill="black"/>
</g>
<defs>
<clipPath id="clip0_309_12677">
<rect width="114.262" height="40" fill="white" transform="translate(334 40)"/>
</clipPath>
<clipPath id="clip1_309_12677">
<rect width="125.014" height="60" fill="white" transform="translate(580 29)"/>
</clipPath>
<clipPath id="clip2_309_12677">
<rect width="133.38" height="80" fill="white" transform="translate(829 20)"/>
</clipPath>
<clipPath id="clip3_309_12677">
<rect width="180" height="34.5831" fill="white" transform="translate(1062 42)"/>
</clipPath>
</defs>
</svg>
